<?xml version="1.0" standalone="no"?>
<!DOCTYPE svg PUBLIC "-//W3C//DTD SVG 1.1//EN" "http://www.w3.org/Graphics/SVG/1.1/DTD/svg11.dtd" >
<!--
2013-9-30: Created.
-->
<svg>
<metadata>
Created by iconfont
</metadata>
<defs>

<font id="vmr" horiz-adv-x="1024" >
  <font-face
    font-family="vmr"
    font-weight="500"
    font-stretch="normal"
    units-per-em="1024"
    ascent="896"
    descent="-128"
  />
    <missing-glyph />
    
    <glyph glyph-name="ppt" unicode="&#58908;" d="M354.401 896c-87.04 0-157.44-70.559-157.44-157.599V462.72H78.72c-21.658 0-39.363-17.7-39.363-39.363V187.04c0-21.658 17.7-39.358 39.363-39.358h118.241V29.6c0-87.04 70.4-157.599 157.44-157.599H827.04c87.04 0 157.598 70.559 157.598 157.599V580.966c0 41.749-38.988 81.93-107.52 149.28L848 759.367l-29.123 29.112C751.54 857.011 711.393 896 669.6 896H354.406z m0-78.72h287.202c28.354-7.091 27.996-42.138 27.996-76.8v-120.161c0-21.658 17.7-39.358 39.362-39.358H827.04c39.388 0 78.878 0.026 78.878-39.362v-512c0-43.32-35.553-78.879-78.878-78.879H354.406c-43.325 0-78.72 35.558-78.72 78.879V147.68h393.918c21.663 0 39.362 17.695 39.362 39.358V423.357c0 21.663-17.7 39.363-39.362 39.363H275.68V738.401c0 43.32 35.395 78.879 78.72 78.879z m-188.8-422.241H208.8c20.48 0 35.84-4.48 46.08-13.44 10.24-8.32 15.36-21.12 15.36-38.4S264.8 312.16 253.92 301.92c-10.88-9.6-26.88-14.402-48-14.402H187.68v-68.158H165.6V395.04z m142.08 0h43.198c20.48 0 35.84-4.48 46.08-13.44 10.24-8.32 15.36-21.12 15.36-38.4S406.88 312.16 396 301.92c-10.88-9.6-26.88-14.402-48-14.402H329.76v-68.158H307.68V395.04z m120.96 0H550.56v-20.158h-49.92v-155.52h-22.073v155.52h-49.92V395.04z m-240.962-19.2v-69.12h15.36c16 0 27.202 2.882 33.602 8.642 7.04 5.76 10.558 14.72 10.558 26.88 0 10.88-3.518 19.2-10.558 24.96-6.4 5.76-16.322 8.638-29.762 8.638h-19.2z m142.08 0v-69.12h15.36c16 0 27.202 2.882 33.602 8.642 7.04 5.76 10.558 14.72 10.558 26.88 0 10.88-3.518 19.2-10.558 24.96-6.4 5.76-16.322 8.638-29.762 8.638h-19.2z"  horiz-adv-x="1024" />

    
    <glyph glyph-name="eot" unicode="&#58910;" d="M354.401 896c-87.04 0-157.44-70.559-157.44-157.599V462.72H78.72c-21.658 0-39.363-17.7-39.363-39.363V187.04c0-21.658 17.7-39.358 39.363-39.358h118.241V29.6c0-87.04 70.4-157.599 157.44-157.599H827.04c87.04 0 157.598 70.559 157.598 157.599V580.966c0 41.749-38.988 81.93-107.52 149.28L848 759.367l-29.123 29.112C751.54 857.011 711.393 896 669.6 896H354.406z m0-78.72h287.202c28.354-7.091 27.996-42.138 27.996-76.8v-120.161c0-21.658 17.7-39.358 39.362-39.358H827.04c39.388 0 78.878 0.026 78.878-39.362v-512c0-43.32-35.553-78.879-78.878-78.879H354.406c-43.325 0-78.72 35.558-78.72 78.879V147.68h393.918c21.663 0 39.362 17.695 39.362 39.358V423.357c0 21.663-17.7 39.363-39.362 39.363H275.68V738.401c0 43.32 35.395 78.879 78.72 78.879z m28.16-425.759c23.04 0 41.278-8.002 54.718-24.002 14.08-15.36 21.12-37.438 21.12-66.238 0-29.44-7.04-51.84-21.12-67.2-13.44-15.36-31.678-23.04-54.718-23.04-23.68 0-42.24 7.358-55.68 22.078-13.44 15.36-20.162 38.082-20.162 68.162 0 29.44 6.722 51.84 20.162 67.2s32 23.04 55.68 23.04zM185.76 388.64h91.202v-20.158h-69.12v-53.76h64.318v-19.2H207.84v-62.402h69.12v-20.158h-91.207V388.64z m283.202 0H590.88v-20.158h-49.92v-155.52H518.88v155.52h-49.92V388.64z m-86.4-17.28c-17.28 0-30.402-6.078-39.362-18.238-8.96-11.52-13.44-28.8-13.44-51.84 0-23.68 4.48-41.6 13.44-53.76 8.96-11.52 22.082-17.28 39.362-17.28s30.398 5.76 39.358 17.28c8.96 12.16 13.44 30.08 13.44 53.76 0 23.04-4.48 40.32-13.44 51.84-8.96 12.16-22.078 18.238-39.358 18.238z"  horiz-adv-x="1024" />

    
    <glyph glyph-name="mp5" unicode="&#58911;" d="M354.401 896c-87.04 0-157.44-70.559-157.44-157.599V462.72H78.72c-21.658 0-39.363-17.7-39.363-39.363V187.04c0-21.658 17.7-39.358 39.363-39.358h118.241V29.6c0-87.04 70.4-157.599 157.44-157.599H827.04c87.04 0 157.598 70.559 157.598 157.599V580.966c0 41.749-38.988 81.93-107.52 149.28L848 759.367l-29.123 29.112C751.54 857.011 711.393 896 669.6 896H354.406z m0-78.72h287.202c28.354-7.091 27.996-42.138 27.996-76.8v-120.161c0-21.658 17.7-39.358 39.362-39.358H827.04c39.388 0 78.878 0.026 78.878-39.362v-512c0-43.32-35.553-78.879-78.878-78.879H354.406c-43.325 0-78.72 35.558-78.72 78.879V147.68h393.918c21.663 0 39.362 17.695 39.362 39.358V423.357c0 21.663-17.7 39.363-39.362 39.363H275.68V738.401c0 43.32 35.395 78.879 78.72 78.879zM155.034 388.639h32.64l49.92-143.038h0.962l48.958 143.038h33.602V212.96h-22.082V319.52c0 10.88 0.322 26.562 0.962 47.042h-0.962l-52.798-153.6h-19.2l-52.802 153.6h-0.958c1.28-22.4 1.92-38.722 1.92-48.962V212.96h-20.162V388.64z m214.082 0h43.198c20.48 0 35.84-4.48 46.08-13.44 10.24-8.32 15.36-21.12 15.36-38.4s-5.438-31.038-16.318-41.278c-10.88-9.6-26.88-14.402-48-14.402h-18.242v-68.158h-22.078V388.64z m144 0h82.56v-20.158h-63.36l-4.802-49.92a163.942 163.942 0 0 0 24.96 1.92c17.28 0 31.042-4.802 41.282-14.402 10.24-8.96 15.36-21.12 15.36-36.48 0-18.56-5.442-32.958-16.322-43.198-10.88-10.24-26.558-15.36-47.038-15.36-17.92 0-32.322 2.878-43.202 8.638v21.12c11.52-7.68 26.24-11.52 44.16-11.52 12.8 0 22.4 3.2 28.8 9.6 7.04 6.4 10.562 15.682 10.562 27.842 0 12.16-3.522 21.12-10.562 26.88-6.4 5.76-16.64 8.638-30.72 8.638-7.04 0-16-0.958-26.88-2.878l-11.52 6.718 6.722 82.56z m-121.922-19.2v-69.12h15.36c16 0 27.202 2.882 33.602 8.642 7.04 5.76 10.558 14.72 10.558 26.88 0 10.88-3.518 19.2-10.558 24.96-6.4 5.76-16.322 8.638-29.762 8.638h-19.2z"  horiz-adv-x="1024" />

    
    <glyph glyph-name="yaml" unicode="&#58912;" d="M354.401 896c-87.04 0-157.44-70.559-157.44-157.599V462.72H78.72c-21.658 0-39.363-17.7-39.363-39.363V187.04c0-21.658 17.7-39.358 39.363-39.358h118.241V29.6c0-87.04 70.4-157.599 157.44-157.599H827.04c87.04 0 157.598 70.559 157.598 157.599V580.966c0 41.749-38.988 81.93-107.52 149.28L848 759.367l-29.123 29.112C751.54 857.011 711.393 896 669.6 896H354.406z m0-78.72h287.202c28.354-7.091 27.996-42.138 27.996-76.8v-120.161c0-21.658 17.7-39.358 39.362-39.358H827.04c39.388 0 78.878 0.026 78.878-39.362v-512c0-43.32-35.553-78.879-78.878-78.879H354.406c-43.325 0-78.72 35.558-78.72 78.879V147.68h393.918c21.663 0 39.362 17.695 39.362 39.358V423.357c0 21.663-17.7 39.363-39.362 39.363H275.68V738.401c0 43.32 35.395 78.879 78.72 78.879z m-93.127-427.679h20.162l65.28-176.64h-23.04l-19.2 54.718h-65.28l-19.2-54.718h-23.04l64.318 176.64z m-181.438-0.962h23.998l40.32-89.278 41.282 89.278h23.998l-53.76-107.52v-68.158h-22.078v67.2L79.836 388.64z m290.878 0h32.64l49.92-143.038h0.962l48.958 143.038h33.602V212.96h-22.082V319.52c0 10.88 0.322 26.562 0.962 47.042h-0.962l-52.798-153.6h-19.2l-52.802 153.6h-0.958c1.28-22.4 1.92-38.722 1.92-48.962V212.96h-20.162V388.64z m214.082 0h22.078v-155.52h69.12v-20.158h-91.188V388.64z m-312.96-23.04c-1.92-8.96-4.802-18.238-8.642-27.838l-17.28-50.882h51.84l-18.238 50.882c-3.84 10.88-6.4 20.158-7.68 27.838z"  horiz-adv-x="1024" />

    
    <glyph glyph-name="psd" unicode="&#58913;" d="M354.401 896c-87.04 0-157.44-70.559-157.44-157.599V462.72H78.72c-21.658 0-39.363-17.7-39.363-39.363V187.04c0-21.658 17.7-39.358 39.363-39.358h118.241V29.6c0-87.04 70.4-157.599 157.44-157.599H827.04c87.04 0 157.598 70.559 157.598 157.599V580.966c0 41.749-38.988 81.93-107.52 149.28L848 759.367l-29.123 29.112C751.54 857.011 711.393 896 669.6 896H354.406z m0-78.72h287.202c28.354-7.091 27.996-42.138 27.996-76.8v-120.161c0-21.658 17.7-39.358 39.362-39.358H827.04c39.388 0 78.878 0.026 78.878-39.362v-512c0-43.32-35.553-78.879-78.878-78.879H354.406c-43.325 0-78.72 35.558-78.72 78.879V147.68h393.918c21.663 0 39.362 17.695 39.362 39.358V423.357c0 21.663-17.7 39.363-39.362 39.363H275.68V738.401c0 43.32 35.395 78.879 78.72 78.879z m-14.08-426.721c17.28 0 32.64-3.2 46.08-9.6l-7.68-18.238c-13.44 5.76-26.24 8.638-38.4 8.638-10.24 0-17.92-2.238-23.04-6.718s-7.68-10.562-7.68-18.242c0-8.96 1.92-15.678 5.76-20.158 4.48-3.84 15.038-9.6 31.678-17.28 17.28-7.04 28.482-14.402 33.602-22.082 5.76-7.04 8.638-16 8.638-26.88 0-14.72-5.12-26.558-15.36-35.518s-24.96-13.44-44.16-13.44c-18.56 0-33.28 2.56-44.16 7.68v21.12c15.36-6.4 30.08-9.6 44.16-9.6 12.8 0 22.082 2.238 27.842 6.718 6.4 4.48 9.6 11.52 9.6 21.12 0 7.68-2.242 14.08-6.722 19.2-3.2 3.2-15.038 9.282-35.518 18.242-13.44 6.4-23.04 13.44-28.8 21.12s-8.642 17.598-8.642 29.758c0 13.44 4.48 24.002 13.44 31.682 9.6 8.32 22.722 12.478 39.362 12.478z m-185.282-1.92h43.202c20.48 0 35.84-4.48 46.08-13.44 10.24-8.32 15.36-21.12 15.36-38.4s-5.442-31.038-16.322-41.278c-10.88-9.6-26.88-14.402-48-14.402H177.12v-68.158h-22.087V388.64z m269.762 0h48.958c24.96 0 44.482-7.68 58.562-23.04 14.72-14.72 22.078-35.84 22.078-63.36 0-28.8-7.68-50.878-23.04-66.238-14.72-15.36-35.518-23.04-62.398-23.04h-44.16V388.64z m-247.68-19.2v-69.12h15.36c16 0 27.198 2.882 33.598 8.642 7.04 5.76 10.562 14.72 10.562 26.88 0 10.88-3.522 19.2-10.562 24.96-6.4 5.76-16.318 8.638-29.758 8.638h-19.2z m269.758 0V232.16h19.2c21.76 0 37.76 5.76 48 17.28 10.88 11.52 16.322 28.8 16.322 51.84s-5.12 39.998-15.36 50.878c-9.6 11.52-24.32 17.28-44.16 17.28h-24.007z"  horiz-adv-x="1024" />

    
    <glyph glyph-name="zip" unicode="&#58914;" d="M354.401 896c-87.04 0-157.44-70.559-157.44-157.599V462.72H78.72c-21.658 0-39.363-17.7-39.363-39.363V187.04c0-21.658 17.7-39.358 39.363-39.358h118.241V29.6c0-87.04 70.4-157.599 157.44-157.599H827.04c87.04 0 157.598 70.559 157.598 157.599V580.966c0 41.749-38.988 81.93-107.52 149.28L848 759.367l-29.123 29.112C751.54 857.011 711.393 896 669.6 896H354.406z m0-78.72h287.202c28.354-7.091 27.996-42.138 27.996-76.8v-120.161c0-21.658 17.7-39.358 39.362-39.358H827.04c39.388 0 78.878 0.026 78.878-39.362v-512c0-43.32-35.553-78.879-78.878-78.879H354.406c-43.325 0-78.72 35.558-78.72 78.879V147.68h393.918c21.663 0 39.362 17.695 39.362 39.358V423.357c0 21.663-17.7 39.363-39.362 39.363H275.68V738.401c0 43.32 35.395 78.879 78.72 78.879zM174.234 388.639h107.52v-17.28l-85.438-138.24h88.32v-20.158H171.361v17.28l85.438 138.24h-82.56V388.64z m129.602 0h64.318v-12.478l-21.12-4.802V230.24l21.12-4.802v-12.478H303.84V225.44l21.12 4.802V371.354l-21.12 4.802v12.478z m97.92 0h43.198c20.48 0 35.84-4.48 46.08-13.44 10.24-8.32 15.36-21.12 15.36-38.4s-5.438-31.038-16.318-41.278c-10.88-9.6-26.88-14.402-48-14.402h-18.242v-68.158h-22.068V388.64z m22.078-19.2v-69.12h15.36c16 0 27.202 2.882 33.602 8.642 7.04 5.76 10.558 14.72 10.558 26.88 0 10.88-3.518 19.2-10.558 24.96-6.4 5.76-16.322 8.638-29.762 8.638h-19.2z"  horiz-adv-x="1024" />

    
    <glyph glyph-name="jpg" unicode="&#58915;" d="M354.401 896c-87.04 0-157.44-70.559-157.44-157.599V462.72H78.72c-21.658 0-39.363-17.7-39.363-39.363V187.04c0-21.658 17.7-39.358 39.363-39.358h118.241V29.6c0-87.04 70.4-157.599 157.44-157.599H827.04c87.04 0 157.598 70.559 157.598 157.599V580.966c0 41.749-38.988 81.93-107.52 149.28L848 759.367l-29.123 29.112C751.54 857.011 711.393 896 669.6 896H354.406z m0-78.72h287.202c28.354-7.091 27.996-42.138 27.996-76.8v-120.161c0-21.658 17.7-39.358 39.362-39.358H827.04c39.388 0 78.878 0.026 78.878-39.362v-512c0-43.32-35.553-78.879-78.878-78.879H354.406c-43.325 0-78.72 35.558-78.72 78.879V147.68h393.918c21.663 0 39.362 17.695 39.362 39.358V423.357c0 21.663-17.7 39.363-39.362 39.363H275.68V738.401c0 43.32 35.395 78.879 78.72 78.879z m147.513-420.321c17.92 0 33.92-3.2 48-9.6l-8.638-20.158c-14.08 7.04-27.842 10.558-41.282 10.558-18.56 0-33.28-6.078-44.16-18.238s-16.318-29.762-16.318-52.802 4.798-40.638 14.398-52.798c10.24-11.52 25.6-17.28 46.08-17.28 9.6 0 19.84 1.28 30.72 3.84v51.84h-35.508V312.48h57.6v-86.4c-17.92-5.76-37.442-8.638-58.562-8.638-23.68 0-42.558 7.68-56.638 23.04s-21.12 37.76-21.12 67.2c0 28.16 7.358 49.92 22.078 65.28 15.36 16 36.48 23.998 63.36 23.998z m-287.038-1.92h22.078v-172.8c0-16-4.158-28.16-12.478-36.48-8.32-8.96-20.162-13.44-35.522-13.44-7.04 0-13.118 0.962-18.238 2.882v19.2a97.68 97.68 0 0 1 19.2-1.92c8.32 0 14.398 2.238 18.238 6.718 4.48 4.48 6.722 11.202 6.722 20.162V395.04z m68.158 0h43.202c20.48 0 35.84-4.48 46.08-13.44 10.24-8.32 15.36-21.12 15.36-38.4s-5.442-31.038-16.322-41.278c-10.88-9.6-26.88-14.402-48-14.402h-18.238v-68.158h-22.082V395.04z m22.082-19.2v-69.12h15.36c16 0 27.198 2.882 33.598 8.642 7.04 5.76 10.562 14.72 10.562 26.88 0 10.88-3.522 19.2-10.562 24.96-6.4 5.76-16.318 8.638-29.758 8.638h-19.2z"  horiz-adv-x="1024" />

    
    <glyph glyph-name="xlsx" unicode="&#58916;" d="M354.401 896c-87.04 0-157.44-70.559-157.44-157.599V462.72H78.72c-21.658 0-39.363-17.7-39.363-39.363V187.04c0-21.658 17.7-39.358 39.363-39.358h118.241V29.6c0-87.04 70.4-157.599 157.44-157.599H827.04c87.04 0 157.598 70.559 157.598 157.599V580.966c0 41.749-38.988 81.93-107.52 149.28L848 759.367l-29.123 29.112C751.54 857.011 711.393 896 669.6 896H354.406z m0-78.72h287.202c28.354-7.091 27.996-42.138 27.996-76.8v-120.161c0-21.658 17.7-39.358 39.362-39.358H827.04c39.388 0 78.878 0.026 78.878-39.362v-512c0-43.32-35.553-78.879-78.878-78.879H354.406c-43.325 0-78.72 35.558-78.72 78.879V147.68h393.918c21.663 0 39.362 17.695 39.362 39.358V423.357c0 21.663-17.7 39.363-39.362 39.363H275.68V738.401c0 43.32 35.395 78.879 78.72 78.879z m79.038-420.321c17.28 0 32.64-3.2 46.08-9.6l-7.68-18.238c-13.44 5.76-26.24 8.638-38.4 8.638-10.24 0-17.92-2.238-23.04-6.718s-7.68-10.562-7.68-18.242c0-8.96 1.92-15.678 5.76-20.158 4.48-3.84 15.042-9.6 31.682-17.28 17.28-7.04 28.478-14.402 33.598-22.082 5.76-7.04 8.642-16 8.642-26.88 0-14.72-5.12-26.558-15.36-35.518s-24.96-13.44-44.16-13.44c-18.56 0-33.28 2.56-44.16 7.68v21.12c15.36-6.4 30.08-9.6 44.16-9.6 12.8 0 22.078 2.238 27.838 6.718 6.4 4.48 9.6 11.52 9.6 21.12 0 7.68-2.238 14.08-6.718 19.2-3.2 3.2-15.042 9.282-35.522 18.242-13.44 6.4-23.04 13.44-28.8 21.12s-8.638 17.598-8.638 29.758c0 13.44 4.48 24.002 13.44 31.682 9.6 8.32 22.718 12.478 39.358 12.478z m-318.72-1.92h24.002l39.358-67.2 40.32 67.2h23.04L190.56 311.52l54.718-92.16h-24.96L177.12 295.2 133.92 219.36h-23.04l54.722 92.16-50.882 83.518z m154.562 0h22.078v-155.52h69.12v-20.158H269.28V395.04z m228.48 0h23.998l39.362-67.2 40.32 67.2h23.04L573.6 311.52l54.722-92.16h-24.96L560.16 295.2 516.96 219.36h-23.04l54.718 92.16-50.878 83.518z"  horiz-adv-x="1024" />

    
    <glyph glyph-name="rar" unicode="&#58917;" d="M354.401 896c-87.04 0-157.44-70.559-157.44-157.599V462.72H78.72c-21.658 0-39.363-17.7-39.363-39.363V187.04c0-21.658 17.7-39.358 39.363-39.358h118.241V29.6c0-87.04 70.4-157.599 157.44-157.599H827.04c87.04 0 157.598 70.559 157.598 157.599V580.966c0 41.749-38.988 81.93-107.52 149.28L848 759.367l-29.123 29.112C751.54 857.011 711.393 896 669.6 896H354.406z m0-78.72h287.202c28.354-7.091 27.996-42.138 27.996-76.8v-120.161c0-21.658 17.7-39.358 39.362-39.358H827.04c39.388 0 78.878 0.026 78.878-39.362v-512c0-43.32-35.553-78.879-78.878-78.879H354.406c-43.325 0-78.72 35.558-78.72 78.879V147.68h393.918c21.663 0 39.362 17.695 39.362 39.358V423.357c0 21.663-17.7 39.363-39.362 39.363H275.68V738.401c0 43.32 35.395 78.879 78.72 78.879z m-3.84-427.679h20.158l65.28-176.64h-23.04l-19.2 54.718h-65.28l-19.2-54.718h-23.04l64.322 176.64z m-185.282-0.962h42.24c21.12 0 36.802-4.158 47.042-12.478 10.24-8.32 15.36-20.802 15.36-37.442 0-23.04-11.52-38.718-34.56-47.038l48-78.72h-25.927l-42.24 72.96h-27.838v-72.96h-22.082V388.64z m294.722 0h42.24c21.12 0 36.798-4.158 47.038-12.478 10.24-8.32 15.36-20.802 15.36-37.442 0-23.04-11.52-38.718-34.56-47.038l48-78.72H552.16l-42.24 72.96H482.08v-72.96H460V388.64z m-272.64-19.2v-65.28h20.158c13.44 0 23.362 2.882 29.762 8.642s9.6 14.08 9.6 24.96-3.2 18.878-9.6 23.998c-5.76 5.12-16 7.68-30.72 7.68h-19.2z m294.718 0v-65.28h20.162c13.44 0 23.358 2.882 29.758 8.642s9.6 14.08 9.6 24.96-3.2 18.878-9.6 23.998c-5.76 5.12-16 7.68-30.72 7.68h-19.2z m-120.96-3.84c-1.92-8.96-4.798-18.238-8.638-27.838l-17.28-50.882h51.84L368.8 337.76c-3.84 10.88-6.4 20.158-7.68 27.838z"  horiz-adv-x="1024" />

    
    <glyph glyph-name="png" unicode="&#58918;" d="M354.401 896c-87.04 0-157.44-70.559-157.44-157.599V462.72H78.72c-21.658 0-39.363-17.7-39.363-39.363V187.04c0-21.658 17.7-39.358 39.363-39.358h118.241V29.6c0-87.04 70.4-157.599 157.44-157.599H827.04c87.04 0 157.598 70.559 157.598 157.599V580.966c0 41.749-38.988 81.93-107.52 149.28L848 759.367l-29.123 29.112C751.54 857.011 711.393 896 669.6 896H354.406z m0-78.72h287.202c28.354-7.091 27.996-42.138 27.996-76.8v-120.161c0-21.658 17.7-39.358 39.362-39.358H827.04c39.388 0 78.878 0.026 78.878-39.362v-512c0-43.32-35.553-78.879-78.878-78.879H354.406c-43.325 0-78.72 35.558-78.72 78.879V147.68h393.918c21.663 0 39.362 17.695 39.362 39.358V423.357c0 21.663-17.7 39.363-39.362 39.363H275.68V738.401c0 43.32 35.395 78.879 78.72 78.879zM543.52 396.959c17.92 0 33.92-3.2 48-9.6L582.88 367.2c-14.08 7.04-27.842 10.558-41.282 10.558-18.56 0-33.28-6.078-44.16-18.238S481.12 329.76 481.12 306.72s4.798-40.638 14.398-52.798c10.24-11.52 25.6-17.28 46.08-17.28 9.6 0 19.84 1.28 30.72 3.84v51.84H536.8V312.48h57.6v-86.4c-17.92-5.76-37.442-8.638-58.562-8.638-23.68 0-42.558 7.68-56.638 23.04s-21.12 37.76-21.12 67.2c0 28.16 7.358 49.92 22.078 65.28 15.36 16 36.48 23.998 63.36 23.998z m-398.398-1.92h43.198c20.48 0 35.84-4.48 46.08-13.44 10.24-8.32 15.36-21.12 15.36-38.4s-5.438-31.038-16.318-41.278c-10.88-9.6-26.88-14.402-48-14.402H167.2v-68.158H145.12V395.04z m142.08 0h25.918L398.56 250.08h0.958c-1.28 21.12-1.92 37.438-1.92 48.958v96h21.12V219.36h-25.913l-86.4 144.958h-0.962c1.28-23.04 1.92-39.68 1.92-49.92v-95.038h-20.158V395.04z m-120.002-19.2v-69.12h15.36c16 0 27.202 2.882 33.602 8.642 7.04 5.76 10.558 14.72 10.558 26.88 0 10.88-3.518 19.2-10.558 24.96-6.4 5.76-16.322 8.638-29.762 8.638h-19.2z"  horiz-adv-x="1024" />

    
    <glyph glyph-name="pl" unicode="&#58919;" d="M354.401 896c-87.04 0-157.44-70.559-157.44-157.599V462.72H78.72c-21.658 0-39.363-17.7-39.363-39.363V187.04c0-21.658 17.7-39.358 39.363-39.358h118.241V29.6c0-87.04 70.4-157.599 157.44-157.599H827.04c87.04 0 157.598 70.559 157.598 157.599V580.966c0 41.749-38.988 81.93-107.52 149.28L848 759.367l-29.123 29.112C751.54 857.011 711.393 896 669.6 896H354.406z m0-78.72h287.202c28.354-7.091 27.996-42.138 27.996-76.8v-120.161c0-21.658 17.7-39.358 39.362-39.358H827.04c39.388 0 78.878 0.026 78.878-39.362v-512c0-43.32-35.553-78.879-78.878-78.879H354.406c-43.325 0-78.72 35.558-78.72 78.879V147.68h393.918c21.663 0 39.362 17.695 39.362 39.358V423.357c0 21.663-17.7 39.363-39.362 39.363H275.68V738.401c0 43.32 35.395 78.879 78.72 78.879zM247.194 388.639h43.202c20.48 0 35.84-4.48 46.08-13.44 10.24-8.32 15.36-21.12 15.36-38.4s-5.442-31.038-16.322-41.278c-10.88-9.6-26.88-14.402-48-14.402h-18.238v-68.158h-22.082V388.64z m142.08 0h22.082v-155.52h69.12v-20.158h-91.202V388.64z m-119.998-19.2v-69.12h15.36c16 0 27.198 2.882 33.598 8.642 7.04 5.76 10.562 14.72 10.562 26.88 0 10.88-3.522 19.2-10.562 24.96-6.4 5.76-16.318 8.638-29.758 8.638h-19.2z"  horiz-adv-x="1024" />

    
    <glyph glyph-name="svg" unicode="&#58920;" d="M354.401 896c-87.04 0-157.44-70.559-157.44-157.599V462.72H78.72c-21.658 0-39.363-17.7-39.363-39.363V187.04c0-21.658 17.7-39.358 39.363-39.358h118.241V29.6c0-87.04 70.4-157.599 157.44-157.599H827.04c87.04 0 157.598 70.559 157.598 157.599V580.966c0 41.749-38.988 81.93-107.52 149.28L848 759.367l-29.123 29.112C751.54 857.011 711.393 896 669.6 896H354.406z m0-78.72h287.202c28.354-7.091 27.996-42.138 27.996-76.8v-120.161c0-21.658 17.7-39.358 39.362-39.358H827.04c39.388 0 78.878 0.026 78.878-39.362v-512c0-43.32-35.553-78.879-78.878-78.879H354.406c-43.325 0-78.72 35.558-78.72 78.879V147.68h393.918c21.663 0 39.362 17.695 39.362 39.358V423.357c0 21.663-17.7 39.363-39.362 39.363H275.68V738.401c0 43.32 35.395 78.879 78.72 78.879z m-115.2-426.721c17.28 0 32.64-3.2 46.08-9.6l-7.68-18.238c-13.44 5.76-26.24 8.638-38.4 8.638-10.24 0-17.92-2.238-23.04-6.718s-7.68-10.562-7.68-18.242c0-8.96 1.92-15.678 5.76-20.158 4.48-3.84 15.038-9.6 31.678-17.28 17.28-7.04 28.482-14.402 33.602-22.082 5.76-7.04 8.638-16 8.638-26.88 0-14.72-5.12-26.558-15.36-35.518s-24.96-13.44-44.16-13.44c-18.56 0-33.28 2.56-44.16 7.68v21.12c15.36-6.4 30.08-9.6 44.16-9.6 12.8 0 22.082 2.238 27.842 6.718 6.4 4.48 9.6 11.52 9.6 21.12 0 7.68-2.242 14.08-6.722 19.2-3.2 3.2-15.038 9.282-35.518 18.242-13.44 6.4-23.04 13.44-28.8 21.12S186.4 334.24 186.4 346.4c0 13.44 4.48 24.002 13.44 31.682 9.6 8.32 22.722 12.478 39.362 12.478z m295.68 0c17.92 0 33.92-3.2 48-9.6L574.24 360.8c-14.08 7.04-27.838 10.558-41.278 10.558-18.56 0-33.28-6.078-44.16-18.238S472.48 323.36 472.48 300.32s4.802-40.638 14.402-52.798c10.24-11.52 25.6-17.28 46.08-17.28 9.6 0 19.84 1.28 30.72 3.84v51.84H528.16V306.08h57.6v-86.4c-17.92-5.76-37.438-8.638-58.558-8.638-23.68 0-42.562 7.68-56.642 23.04s-21.12 37.76-21.12 67.2c0 28.16 7.362 49.92 22.082 65.28 15.36 16 36.48 23.998 63.36 23.998z m-235.202-1.92h24.002l35.518-111.36c3.2-10.88 6.722-24.32 10.562-40.32 1.92 11.52 5.438 25.282 10.558 41.282L415.84 388.64h23.04L380.314 212.96h-22.068L299.674 388.64z"  horiz-adv-x="1024" />

    
    <glyph glyph-name="mp4" unicode="&#58921;" d="M354.401 896c-87.04 0-157.44-70.559-157.44-157.599V462.72H78.72c-21.658 0-39.363-17.7-39.363-39.363V187.04c0-21.658 17.7-39.358 39.363-39.358h118.241V29.6c0-87.04 70.4-157.599 157.44-157.599H827.04c87.04 0 157.598 70.559 157.598 157.599V580.966c0 41.749-38.988 81.93-107.52 149.28L848 759.367l-29.123 29.112C751.54 857.011 711.393 896 669.6 896H354.406z m0-78.72h287.202c28.354-7.091 27.996-42.138 27.996-76.8v-120.161c0-21.658 17.7-39.358 39.362-39.358H827.04c39.388 0 78.878 0.026 78.878-39.362v-512c0-43.32-35.553-78.879-78.878-78.879H354.406c-43.325 0-78.72 35.558-78.72 78.879V147.68h393.918c21.663 0 39.362 17.695 39.362 39.358V423.357c0 21.663-17.7 39.363-39.362 39.363H275.68V738.401c0 43.32 35.395 78.879 78.72 78.879zM569.76 389.601h22.082v-117.12h25.918v-20.162H591.84v-39.358h-21.12V252.32h-80.64v19.2L569.76 389.6z m-414.72-0.962h32.64l49.92-143.038h0.962L287.52 388.64h33.602V212.96H299.04V319.52c0 10.88 0.322 26.562 0.962 47.042h-0.962l-52.798-153.6h-19.2l-52.802 153.6h-0.958c1.28-22.4 1.92-38.722 1.92-48.962V212.96h-20.167V388.64z m214.082 0h43.198c20.48 0 35.84-4.48 46.08-13.44 10.24-8.32 15.36-21.12 15.36-38.4s-5.438-31.038-16.318-41.278c-10.88-9.6-26.88-14.402-48-14.402H391.2v-68.158H369.12V388.64z m22.078-19.2v-69.12h15.36c16 0 27.202 2.882 33.602 8.642 7.04 5.76 10.558 14.72 10.558 26.88 0 10.88-3.518 19.2-10.558 24.96-6.4 5.76-16.322 8.638-29.762 8.638h-19.2z m180.48-2.878c-3.2-8.32-6.718-15.36-10.558-21.12l-49.92-72.96h59.52v42.24c0 14.08 0.64 31.36 1.92 51.84h-0.962z"  horiz-adv-x="1024" />

    
    <glyph glyph-name="yml" unicode="&#58922;" d="M354.401 896c-87.04 0-157.44-70.559-157.44-157.599V462.72H78.72c-21.658 0-39.363-17.7-39.363-39.363V187.04c0-21.658 17.7-39.358 39.363-39.358h118.241V29.6c0-87.04 70.4-157.599 157.44-157.599H827.04c87.04 0 157.598 70.559 157.598 157.599V580.966c0 41.749-38.988 81.93-107.52 149.28L848 759.367l-29.123 29.112C751.54 857.011 711.393 896 669.6 896H354.406z m0-78.72h287.202c28.354-7.091 27.996-42.138 27.996-76.8v-120.161c0-21.658 17.7-39.358 39.362-39.358H827.04c39.388 0 78.878 0.026 78.878-39.362v-512c0-43.32-35.553-78.879-78.878-78.879H354.406c-43.325 0-78.72 35.558-78.72 78.879V147.68h393.918c21.663 0 39.362 17.695 39.362 39.358V423.357c0 21.663-17.7 39.363-39.362 39.363H275.68V738.401c0 43.32 35.395 78.879 78.72 78.879z m-213.12-428.641h23.998l40.32-89.278 41.282 89.278h23.998l-53.76-107.52v-68.158H195.04v67.2l-53.76 108.478z m153.6 0h32.64l49.92-143.038h0.958L427.36 388.64h33.598V212.96h-22.073V319.52c0 10.88 0.318 26.562 0.958 47.042h-0.958l-52.802-153.6h-19.2l-52.798 153.6h-0.962c1.28-22.4 1.92-38.722 1.92-48.962V212.96h-20.158V388.64z m214.078 0h22.082v-155.52h69.12v-20.158H508.96V388.64z"  horiz-adv-x="1024" />

    
    <glyph glyph-name="py" unicode="&#58923;" d="M354.401 896c-87.04 0-157.44-70.559-157.44-157.599V462.72H78.72c-21.658 0-39.363-17.7-39.363-39.363V187.04c0-21.658 17.7-39.358 39.363-39.358h118.241V29.6c0-87.04 70.4-157.599 157.44-157.599H827.04c87.04 0 157.598 70.559 157.598 157.599V580.966c0 41.749-38.988 81.93-107.52 149.28L848 759.367l-29.123 29.112C751.54 857.011 711.393 896 669.6 896H354.406z m0-78.72h287.202c28.354-7.091 27.996-42.138 27.996-76.8v-120.161c0-21.658 17.7-39.358 39.362-39.358H827.04c39.388 0 78.878 0.026 78.878-39.362v-512c0-43.32-35.553-78.879-78.878-78.879H354.406c-43.325 0-78.72 35.558-78.72 78.879V147.68h393.918c21.663 0 39.362 17.695 39.362 39.358V423.357c0 21.663-17.7 39.363-39.362 39.363H275.68V738.401c0 43.32 35.395 78.879 78.72 78.879zM247.194 388.639h43.202c20.48 0 35.84-4.48 46.08-13.44 10.24-8.32 15.36-21.12 15.36-38.4s-5.442-31.038-16.322-41.278c-10.88-9.6-26.88-14.402-48-14.402h-18.238v-68.158h-22.082V388.64z m115.2 0h24.002l40.32-89.278 41.278 89.278h24.002l-53.76-107.52v-68.158h-22.082v67.2l-53.76 108.478z m-93.118-19.2v-69.12h15.36c16 0 27.198 2.882 33.598 8.642 7.04 5.76 10.562 14.72 10.562 26.88 0 10.88-3.522 19.2-10.562 24.96-6.4 5.76-16.318 8.638-29.758 8.638h-19.2z"  horiz-adv-x="1024" />

    
    <glyph glyph-name="woff" unicode="&#58924;" d="M354.401 896c-87.04 0-157.44-70.559-157.44-157.599V462.72H78.72c-21.658 0-39.363-17.7-39.363-39.363V187.04c0-21.658 17.7-39.358 39.363-39.358h118.241V29.6c0-87.04 70.4-157.599 157.44-157.599H827.04c87.04 0 157.598 70.559 157.598 157.599V580.966c0 41.749-38.988 81.93-107.52 149.28L848 759.367l-29.123 29.112C751.54 857.011 711.393 896 669.6 896H354.406z m0-78.72h287.202c28.354-7.091 27.996-42.138 27.996-76.8v-120.161c0-21.658 17.7-39.358 39.362-39.358H827.04c39.388 0 78.878 0.026 78.878-39.362v-512c0-43.32-35.553-78.879-78.878-78.879H354.406c-43.325 0-78.72 35.558-78.72 78.879V147.68h393.918c21.663 0 39.362 17.695 39.362 39.358V423.357c0 21.663-17.7 39.363-39.362 39.363H275.68V738.401c0 43.32 35.395 78.879 78.72 78.879z m10.24-425.759c23.04 0 41.278-8.002 54.718-24.002 14.08-15.36 21.12-37.438 21.12-66.238 0-29.44-7.04-51.84-21.12-67.2-13.44-15.36-31.678-23.04-54.718-23.04-23.68 0-42.24 7.358-55.68 22.078-13.44 15.36-20.162 38.082-20.162 68.162 0 29.44 6.722 51.84 20.162 67.2s32 23.04 55.68 23.04zM62.24 388.64h23.04l26.88-106.558c3.2-12.16 6.082-27.202 8.642-45.122 2.56 19.2 5.438 35.522 8.638 48.962l26.88 102.718h24.002l26.88-102.718c6.4-22.4 10.24-38.722 11.52-48.962a493.885 493.885 0 0 0 7.68 46.08l23.998 105.6H274.4l-44.16-175.678h-23.04L177.44 325.28c-3.2 10.88-6.4 23.362-9.6 37.442-3.2-17.92-5.76-30.402-7.68-37.442L130.4 212.96H108.32L62.239 388.64z m417.602 0h91.198v-20.158h-69.12v-61.44h64.322v-20.162h-64.327v-73.918h-22.068V388.64z m120.96 0H692v-20.158h-69.12v-61.44H687.2v-20.162H622.88v-73.918H600.8V388.64z m-236.16-17.28c-17.28 0-30.402-6.078-39.362-18.238-8.96-11.52-13.44-28.8-13.44-51.84 0-23.68 4.48-41.6 13.44-53.76 8.96-11.52 22.082-17.28 39.362-17.28s30.398 5.76 39.358 17.28c8.96 12.16 13.44 30.08 13.44 53.76 0 23.04-4.48 40.32-13.44 51.84-8.96 12.16-22.078 18.238-39.358 18.238z"  horiz-adv-x="1024" />

    
    <glyph glyph-name="7z" unicode="&#58880;" d="M354.401 896c-87.04 0-157.44-70.559-157.44-157.599V462.72H78.72c-21.658 0-39.363-17.7-39.363-39.363V187.04c0-21.658 17.7-39.358 39.363-39.358h118.241V29.6c0-87.04 70.4-157.599 157.44-157.599H827.04c87.04 0 157.598 70.559 157.598 157.599V580.966c0 41.749-38.988 81.93-107.52 149.28L848 759.367l-29.123 29.112C751.54 857.011 711.393 896 669.6 896H354.406z m0-78.72h287.202c28.354-7.091 27.996-42.138 27.996-76.8v-120.161c0-21.658 17.7-39.358 39.362-39.358H827.04c39.388 0 78.878 0.026 78.878-39.362v-512c0-43.32-35.553-78.879-78.878-78.879H354.406c-43.325 0-78.72 35.558-78.72 78.879V147.68h393.918c21.663 0 39.362 17.695 39.362 39.358V423.357c0 21.663-17.7 39.363-39.362 39.363H275.68V738.401c0 43.32 35.395 78.879 78.72 78.879zM254.24 388.639h113.28v-17.28l-67.2-158.398h-23.04l68.162 155.52H254.24V388.64z m138.24-44.16h82.56v-17.28l-62.398-97.92h65.28v-16.318H388.64v15.36l64.322 99.84H392.48V344.48z"  horiz-adv-x="1024" />

    
    <glyph glyph-name="ai" unicode="&#58881;" d="M354.401 896c-87.04 0-157.44-70.559-157.44-157.599V462.72H78.72c-21.658 0-39.363-17.7-39.363-39.363V187.04c0-21.658 17.7-39.358 39.363-39.358h118.241V29.6c0-87.04 70.4-157.599 157.44-157.599H827.04c87.04 0 157.598 70.559 157.598 157.599V580.966c0 41.749-38.988 81.93-107.52 149.28L848 759.367l-29.123 29.112C751.54 857.011 711.393 896 669.6 896H354.406z m0-78.72h287.202c28.354-7.091 27.996-42.138 27.996-76.8v-120.161c0-21.658 17.7-39.358 39.362-39.358H827.04c39.388 0 78.878 0.026 78.878-39.362v-512c0-43.32-35.553-78.879-78.878-78.879H354.406c-43.325 0-78.72 35.558-78.72 78.879V147.68h393.918c21.663 0 39.362 17.695 39.362 39.358V423.357c0 21.663-17.7 39.363-39.362 39.363H275.68V738.401c0 43.32 35.395 78.879 78.72 78.879zM328.48 389.601h20.162l65.28-176.64h-23.04l-19.2 54.718h-65.28l-19.2-54.718h-23.04l64.318 176.64z m95.042-0.962h64.313v-12.478l-21.12-4.802V230.24l21.12-4.802v-12.478h-64.308V225.44l21.12 4.802V371.354l-21.12 4.802v12.478z m-84.48-23.04c-1.92-8.96-4.802-18.238-8.642-27.838l-17.28-50.882h51.84L346.72 337.76c-3.84 10.88-6.4 20.158-7.68 27.838z"  horiz-adv-x="1024" />

    
    <glyph glyph-name="bmp" unicode="&#58882;" d="M354.401 896c-87.04 0-157.44-70.559-157.44-157.599V462.72H78.72c-21.658 0-39.363-17.7-39.363-39.363V187.04c0-21.658 17.7-39.358 39.363-39.358h118.241V29.6c0-87.04 70.4-157.599 157.44-157.599H827.04c87.04 0 157.598 70.559 157.598 157.599V580.966c0 41.749-38.988 81.93-107.52 149.28L848 759.367l-29.123 29.112C751.54 857.011 711.393 896 669.6 896H354.406z m0-78.72h287.202c28.354-7.091 27.996-42.138 27.996-76.8v-120.161c0-21.658 17.7-39.358 39.362-39.358H827.04c39.388 0 78.878 0.026 78.878-39.362v-512c0-43.32-35.553-78.879-78.878-78.879H354.406c-43.325 0-78.72 35.558-78.72 78.879V147.68h393.918c21.663 0 39.362 17.695 39.362 39.358V423.357c0 21.663-17.7 39.363-39.362 39.363H275.68V738.401c0 43.32 35.395 78.879 78.72 78.879zM134.554 388.639h48c23.04 0 39.04-3.84 48-11.52 9.6-7.04 14.402-17.92 14.402-32.64 0-21.76-11.842-34.56-35.522-38.4v-0.958c26.88-4.48 40.32-18.242 40.32-41.282 0-15.36-5.12-27.838-15.36-37.438-9.6-8.96-23.358-13.44-41.278-13.44h-58.562V388.64z m152.642 0h32.64l49.92-143.038h0.958l48.962 143.038h33.598V212.96h-22.068V319.52c0 10.88 0.318 26.562 0.958 47.042h-0.958l-52.802-153.6h-19.2l-52.798 153.6h-0.962c1.28-22.4 1.92-38.722 1.92-48.962V212.96h-20.158V388.64z m214.078 0h43.202c20.48 0 35.84-4.48 46.08-13.44 10.24-8.32 15.36-21.12 15.36-38.4s-5.442-31.038-16.322-41.278c-10.88-9.6-26.88-14.402-48-14.402h-18.238v-68.158h-22.082V388.64z m-344.638-19.2v-55.68h29.758c12.8 0 21.76 2.242 26.88 6.722 5.76 5.12 8.642 12.478 8.642 22.078 0 8.96-3.2 15.682-9.6 20.162s-16 6.718-28.8 6.718h-26.88z m366.72 0v-69.12h15.36c16 0 27.198 2.882 33.598 8.642 7.04 5.76 10.562 14.72 10.562 26.88 0 10.88-3.522 19.2-10.562 24.96-6.4 5.76-16.318 8.638-29.758 8.638h-19.2z m-366.715-73.913v-63.36h31.678c12.8 0 22.082 2.56 27.842 7.68 6.4 5.76 9.6 14.08 9.6 24.96 0 10.24-3.2 17.92-9.6 23.04s-16 7.68-28.8 7.68h-30.72z"  horiz-adv-x="1024" />

    
    <glyph glyph-name="bat" unicode="&#58883;" d="M354.401 896c-87.04 0-157.44-70.559-157.44-157.599V462.72H78.72c-21.658 0-39.363-17.7-39.363-39.363V187.04c0-21.658 17.7-39.358 39.363-39.358h118.241V29.6c0-87.04 70.4-157.599 157.44-157.599H827.04c87.04 0 157.598 70.559 157.598 157.599V580.966c0 41.749-38.988 81.93-107.52 149.28L848 759.367l-29.123 29.112C751.54 857.011 711.393 896 669.6 896H354.406z m0-78.72h287.202c28.354-7.091 27.996-42.138 27.996-76.8v-120.161c0-21.658 17.7-39.358 39.362-39.358H827.04c39.388 0 78.878 0.026 78.878-39.362v-512c0-43.32-35.553-78.879-78.878-78.879H354.406c-43.325 0-78.72 35.558-78.72 78.879V147.68h393.918c21.663 0 39.362 17.695 39.362 39.358V423.357c0 21.663-17.7 39.363-39.362 39.363H275.68V738.401c0 43.32 35.395 78.879 78.72 78.879z m24.32-427.679h20.158l65.28-176.64h-23.04l-19.2 54.718h-65.28l-19.2-54.718h-23.04l64.322 176.64z m-192.962-0.962h48c23.04 0 39.04-3.84 48-11.52 9.6-7.04 14.402-17.92 14.402-32.64 0-21.76-11.842-34.56-35.522-38.4v-0.958c26.88-4.48 40.32-18.242 40.32-41.282 0-15.36-5.12-27.838-15.36-37.438-9.6-8.96-23.358-13.44-41.278-13.44h-58.567V388.64z m266.88 0H574.56v-20.158h-49.92v-155.52H502.56v155.52h-49.92V388.64z m-244.798-19.2v-55.68H237.6c12.8 0 21.76 2.242 26.88 6.722 5.76 5.12 8.642 12.478 8.642 22.078 0 8.96-3.2 15.682-9.6 20.162s-16 6.718-28.8 6.718h-26.88z m181.438-3.84c-1.92-8.96-4.798-18.238-8.638-27.838l-17.28-50.882h51.84L396.96 337.76c-3.84 10.88-6.4 20.158-7.68 27.838zM207.84 295.526v-63.36h31.678c12.8 0 22.082 2.56 27.842 7.68 6.4 5.76 9.6 14.08 9.6 24.96 0 10.24-3.2 17.92-9.6 23.04s-16 7.68-28.8 7.68h-30.72z"  horiz-adv-x="1024" />

    
    <glyph glyph-name="bin" unicode="&#58884;" d="M354.401 896c-87.04 0-157.44-70.559-157.44-157.599V462.72H78.72c-21.658 0-39.363-17.7-39.363-39.363V187.04c0-21.658 17.7-39.358 39.363-39.358h118.241V29.6c0-87.04 70.4-157.599 157.44-157.599H827.04c87.04 0 157.598 70.559 157.598 157.599V580.966c0 41.749-38.988 81.93-107.52 149.28L848 759.367l-29.123 29.112C751.54 857.011 711.393 896 669.6 896H354.406z m0-78.72h287.202c28.354-7.091 27.996-42.138 27.996-76.8v-120.161c0-21.658 17.7-39.358 39.362-39.358H827.04c39.388 0 78.878 0.026 78.878-39.362v-512c0-43.32-35.553-78.879-78.878-78.879H354.406c-43.325 0-78.72 35.558-78.72 78.879V147.68h393.918c21.663 0 39.362 17.695 39.362 39.358V423.357c0 21.663-17.7 39.363-39.362 39.363H275.68V738.401c0 43.32 35.395 78.879 78.72 78.879zM155.034 388.639h48c23.04 0 39.04-3.84 48-11.52 9.6-7.04 14.402-17.92 14.402-32.64 0-21.76-11.842-34.56-35.522-38.4v-0.958c26.88-4.48 40.32-18.242 40.32-41.282 0-15.36-5.12-27.838-15.36-37.438-9.6-8.96-23.358-13.44-41.278-13.44h-58.562V388.64z m138.24 0h64.322v-12.478l-21.12-4.802V230.24l21.12-4.802v-12.478h-64.322V225.44l21.12 4.802V371.354l-21.12 4.802v12.478z m97.92 0h25.922l85.438-144.958h0.962c-1.28 21.12-1.92 37.438-1.92 48.958v96h21.12V212.96h-25.922l-86.4 144.958h-0.958c1.28-23.04 1.92-39.68 1.92-49.92v-95.038h-20.162V388.64z m-214.078-19.2v-55.68h29.758c12.8 0 21.76 2.242 26.88 6.722 5.76 5.12 8.642 12.478 8.642 22.078 0 8.96-3.2 15.682-9.6 20.162s-16 6.718-28.8 6.718h-26.88z m0-73.918v-63.36h31.678c12.8 0 22.082 2.56 27.842 7.68 6.4 5.76 9.6 14.08 9.6 24.96 0 10.24-3.2 17.92-9.6 23.04s-16 7.68-28.8 7.68h-30.72z"  horiz-adv-x="1024" />

    
    <glyph glyph-name="js" unicode="&#58885;" d="M354.401 896c-87.04 0-157.44-70.559-157.44-157.599V462.72H78.72c-21.658 0-39.363-17.7-39.363-39.363V187.04c0-21.658 17.7-39.358 39.363-39.358h118.241V29.6c0-87.04 70.4-157.599 157.44-157.599H827.04c87.04 0 157.598 70.559 157.598 157.599V580.966c0 41.749-38.988 81.93-107.52 149.28L848 759.367l-29.123 29.112C751.54 857.011 711.393 896 669.6 896H354.406z m0-78.72h287.202c28.354-7.091 27.996-42.138 27.996-76.8v-120.161c0-21.658 17.7-39.358 39.362-39.358H827.04c39.388 0 78.878 0.026 78.878-39.362v-512c0-43.32-35.553-78.879-78.878-78.879H354.406c-43.325 0-78.72 35.558-78.72 78.879V147.68h393.918c21.663 0 39.362 17.695 39.362 39.358V423.357c0 21.663-17.7 39.363-39.362 39.363H275.68V738.401c0 43.32 35.395 78.879 78.72 78.879z m55.353-423.199c17.28 0 32.64-3.2 46.08-9.6l-7.68-18.242c-13.44 5.76-26.24 8.642-38.4 8.642-10.24 0-17.92-2.242-23.04-6.722s-7.68-10.558-7.68-18.238c0-8.96 1.92-15.682 5.76-20.162 4.48-3.84 15.042-9.6 31.682-17.28 17.28-7.04 28.478-14.398 33.598-22.078 5.76-7.04 8.642-16 8.642-26.88 0-14.72-5.12-26.562-15.36-35.522s-24.96-13.44-44.16-13.44c-18.56 0-33.28 2.56-44.16 7.68v21.12c15.36-6.4 30.08-9.6 44.16-9.6 12.8 0 22.078 2.242 27.838 6.722 6.4 4.48 9.6 11.52 9.6 21.12 0 7.68-2.238 14.08-6.718 19.2-3.2 3.2-15.042 9.278-35.522 18.238-13.44 6.4-23.04 13.44-28.8 21.12s-8.638 17.602-8.638 29.762c0 13.44 4.48 23.998 13.44 31.678 9.6 8.32 22.718 12.482 39.358 12.482z m-111.36-1.92h22.082v-172.8c0-16-4.162-28.16-12.482-36.48-8.32-8.96-20.158-13.44-35.518-13.44-7.04 0-13.122 0.958-18.242 2.878v19.2a97.68 97.68 0 0 1 19.2-1.92c8.32 0 14.402 2.242 18.242 6.722 4.48 4.48 6.718 11.198 6.718 20.158V392.16z"  horiz-adv-x="1024" />

    
    <glyph glyph-name="java" unicode="&#58886;" d="M354.401 896c-87.04 0-157.44-70.559-157.44-157.599V462.72H78.72c-21.658 0-39.363-17.7-39.363-39.363V187.04c0-21.658 17.7-39.358 39.363-39.358h118.241V29.6c0-87.04 70.4-157.599 157.44-157.599H827.04c87.04 0 157.598 70.559 157.598 157.599V580.966c0 41.749-38.988 81.93-107.52 149.28L848 759.367l-29.123 29.112C751.54 857.011 711.393 896 669.6 896H354.406z m0-78.72h287.202c28.354-7.091 27.996-42.138 27.996-76.8v-120.161c0-21.658 17.7-39.358 39.362-39.358H827.04c39.388 0 78.878 0.026 78.878-39.362v-512c0-43.32-35.553-78.879-78.878-78.879H354.406c-43.325 0-78.72 35.558-78.72 78.879V147.68h393.918c21.663 0 39.362 17.695 39.362 39.358V423.357c0 21.663-17.7 39.363-39.362 39.363H275.68V738.401c0 43.32 35.395 78.879 78.72 78.879z m-92.8-407.199h20.158l65.28-176.64h-23.04l-19.2 54.718h-65.28l-19.2-54.718h-23.04l64.322 176.64z m273.598 0h20.162l65.28-176.64h-23.04l-19.2 54.718h-65.28l-19.2-54.718h-23.04l64.318 176.64z m-382.08-0.962H175.2v-172.8c0-16-4.162-28.16-12.482-36.48-8.32-8.96-20.158-13.44-35.518-13.44-7.04 0-13.122 0.962-18.242 2.882v19.2a97.68 97.68 0 0 1 19.2-1.92c8.32 0 14.402 2.238 18.242 6.718 4.48 4.48 6.718 11.202 6.718 20.162V409.12z m186.24 0h24.002l35.518-111.36c3.2-10.88 6.722-24.32 10.562-40.32 1.92 11.52 5.438 25.282 10.558 41.282L455.52 409.12h23.04L419.994 233.44h-22.068L339.354 409.12z m-67.2-23.04c-1.92-8.96-4.798-18.238-8.638-27.838l-17.28-50.882h51.84L279.84 358.24c-3.84 10.88-6.4 20.158-7.68 27.838z m273.602 0c-1.92-8.96-4.802-18.238-8.642-27.838l-17.28-50.882h51.84L553.44 358.24c-3.84 10.88-6.4 20.158-7.68 27.838z"  horiz-adv-x="1024" />

    
    <glyph glyph-name="md" unicode="&#58887;" d="M354.401 896c-87.04 0-157.44-70.559-157.44-157.599V462.72H78.72c-21.658 0-39.363-17.7-39.363-39.363V187.04c0-21.658 17.7-39.358 39.363-39.358h118.241V29.6c0-87.04 70.4-157.599 157.44-157.599H827.04c87.04 0 157.598 70.559 157.598 157.599V580.966c0 41.749-38.988 81.93-107.52 149.28L848 759.367l-29.123 29.112C751.54 857.011 711.393 896 669.6 896H354.406z m0-78.72h287.202c28.354-7.091 27.996-42.138 27.996-76.8v-120.161c0-21.658 17.7-39.358 39.362-39.358H827.04c39.388 0 78.878 0.026 78.878-39.362v-512c0-43.32-35.553-78.879-78.878-78.879H354.406c-43.325 0-78.72 35.558-78.72 78.879V147.68h393.918c21.663 0 39.362 17.695 39.362 39.358V423.357c0 21.663-17.7 39.363-39.362 39.363H275.68V738.401c0 43.32 35.395 78.879 78.72 78.879zM195.994 388.639h32.64l49.92-143.038h0.962l48.958 143.038h33.602V212.96h-22.082V319.52c0 10.88 0.322 26.562 0.962 47.042h-0.962l-52.798-153.6h-19.2l-52.802 153.6h-0.958c1.28-22.4 1.92-38.722 1.92-48.962V212.96h-20.162V388.64z m214.082 0h48.958c24.96 0 44.482-7.68 58.562-23.04 14.72-14.72 22.078-35.84 22.078-63.36 0-28.8-7.68-50.878-23.04-66.238-14.72-15.36-35.518-23.04-62.398-23.04h-44.16V388.64z m22.078-19.2V232.16h19.2c21.76 0 37.76 5.76 48 17.28 10.88 11.52 16.322 28.8 16.322 51.84s-5.12 39.998-15.36 50.878c-9.6 11.52-24.32 17.28-44.16 17.28h-24.002z"  horiz-adv-x="1024" />

    
    <glyph glyph-name="mp3" unicode="&#58888;" d="M354.401 896c-87.04 0-157.44-70.559-157.44-157.599V462.72H78.72c-21.658 0-39.363-17.7-39.363-39.363V187.04c0-21.658 17.7-39.358 39.363-39.358h118.241V29.6c0-87.04 70.4-157.599 157.44-157.599H827.04c87.04 0 157.598 70.559 157.598 157.599V580.966c0 41.749-38.988 81.93-107.52 149.28L848 759.367l-29.123 29.112C751.54 857.011 711.393 896 669.6 896H354.406z m0-78.72h287.202c28.354-7.091 27.996-42.138 27.996-76.8v-120.161c0-21.658 17.7-39.358 39.362-39.358H827.04c39.388 0 78.878 0.026 78.878-39.362v-512c0-43.32-35.553-78.879-78.878-78.879H354.406c-43.325 0-78.72 35.558-78.72 78.879V147.68h393.918c21.663 0 39.362 17.695 39.362 39.358V423.357c0 21.663-17.7 39.363-39.362 39.363H275.68V738.401c0 43.32 35.395 78.879 78.72 78.879zM550.56 390.559c16.64 0 29.44-4.158 38.4-12.478 8.96-7.68 13.44-17.92 13.44-30.72 0-23.04-12.478-37.12-37.438-42.24 28.8-3.84 43.198-17.92 43.198-42.24 0-16-5.438-28.8-16.318-38.4-10.88-8.96-26.88-13.44-48-13.44-19.84 0-35.522 2.878-47.042 8.638v21.12c14.72-7.68 30.08-11.52 46.08-11.52 14.08 0 24.642 2.882 31.682 8.642s10.558 14.398 10.558 25.918c0 10.24-3.84 17.92-11.52 23.04-7.04 5.12-18.238 7.68-33.598 7.68H523.68V312.8H540c12.8 0 22.718 2.878 29.758 8.638 7.04 6.4 10.562 14.72 10.562 24.96 0 7.68-2.882 13.762-8.642 18.242-5.12 5.12-12.16 7.68-21.12 7.68-14.72 0-28.478-4.802-41.278-14.402l-11.52 15.36c14.72 11.52 32.318 17.28 52.798 17.28z m-395.52-1.92h32.64l49.92-143.038h0.962L287.52 388.64h33.602V212.96H299.04V319.52c0 10.88 0.322 26.562 0.962 47.042h-0.962l-52.798-153.6h-19.2l-52.802 153.6h-0.958c1.28-22.4 1.92-38.722 1.92-48.962V212.96h-20.167V388.64z m214.082 0h43.198c20.48 0 35.84-4.48 46.08-13.44 10.24-8.32 15.36-21.12 15.36-38.4s-5.438-31.038-16.318-41.278c-10.88-9.6-26.88-14.402-48-14.402H391.2v-68.158H369.12V388.64z m22.078-19.2v-69.12h15.36c16 0 27.202 2.882 33.602 8.642 7.04 5.76 10.558 14.72 10.558 26.88 0 10.88-3.518 19.2-10.558 24.96-6.4 5.76-16.322 8.638-29.762 8.638h-19.2z"  horiz-adv-x="1024" />

    
    <glyph glyph-name="avi" unicode="&#58889;" d="M354.401 896c-87.04 0-157.44-70.559-157.44-157.599V462.72H78.72c-21.658 0-39.363-17.7-39.363-39.363V187.04c0-21.658 17.7-39.358 39.363-39.358h118.241V29.6c0-87.04 70.4-157.599 157.44-157.599H827.04c87.04 0 157.598 70.559 157.598 157.599V580.966c0 41.749-38.988 81.93-107.52 149.28L848 759.367l-29.123 29.112C751.54 857.011 711.393 896 669.6 896H354.406z m0-78.72h287.202c28.354-7.091 27.996-42.138 27.996-76.8v-120.161c0-21.658 17.7-39.358 39.362-39.358H827.04c39.388 0 78.878 0.026 78.878-39.362v-512c0-43.32-35.553-78.879-78.878-78.879H354.406c-43.325 0-78.72 35.558-78.72 78.879V147.68h393.918c21.663 0 39.362 17.695 39.362 39.358V423.357c0 21.663-17.7 39.363-39.362 39.363H275.68V738.401c0 43.32 35.395 78.879 78.72 78.879zM256.8 389.601h20.162l65.28-176.64h-23.04l-19.2 54.718h-65.28l-19.2-54.718h-23.04l64.318 176.64z m77.762-0.962h23.998l35.522-111.36c3.2-10.88 6.718-24.32 10.558-40.32 1.92 11.52 5.442 25.282 10.562 41.282L450.72 388.64h23.04L415.2 212.96h-22.087L334.56 388.64z m148.798 0h64.322v-12.478l-21.12-4.802V230.24l21.12-4.802v-12.478H483.36V225.44l21.12 4.802V371.354l-21.12 4.802v12.478z m-215.998-23.04c-1.92-8.96-4.802-18.238-8.642-27.838l-17.28-50.882h51.84L275.04 337.76c-3.84 10.88-6.4 20.158-7.68 27.838z"  horiz-adv-x="1024" />

    
    <glyph glyph-name="html" unicode="&#58890;" d="M354.401 896c-87.04 0-157.44-70.559-157.44-157.599V462.72H78.72c-21.658 0-39.363-17.7-39.363-39.363V187.04c0-21.658 17.7-39.358 39.363-39.358h118.241V29.6c0-87.04 70.4-157.599 157.44-157.599H827.04c87.04 0 157.598 70.559 157.598 157.599V580.966c0 41.749-38.988 81.93-107.52 149.28L848 759.367l-29.123 29.112C751.54 857.011 711.393 896 669.6 896H354.406z m0-78.72h287.202c28.354-7.091 27.996-42.138 27.996-76.8v-120.161c0-21.658 17.7-39.358 39.362-39.358H827.04c39.388 0 78.878 0.026 78.878-39.362v-512c0-43.32-35.553-78.879-78.878-78.879H354.406c-43.325 0-78.72 35.558-78.72 78.879V147.68h393.918c21.663 0 39.362 17.695 39.362 39.358V423.357c0 21.663-17.7 39.363-39.362 39.363H275.68V738.401c0 43.32 35.395 78.879 78.72 78.879zM75.04 402.401H97.12v-73.922h79.673V402.4h23.04V226.72h-23.04v81.607H97.126v-81.602H75.044V402.4z m151.68 0H348.64v-20.162h-49.92v-155.52h-22.087v155.52h-49.92V402.4z m148.802 0h32.64l49.92-143.042h0.958L508 402.4H541.6V226.72H519.52V333.28c0 10.88 0.318 26.558 0.958 47.038h-0.958l-52.802-153.6h-19.2l-52.798 153.6h-0.962c1.28-22.4 1.92-38.718 1.92-48.958V226.72H375.52V402.4z m214.078 0h22.082v-155.52h69.12v-20.162H589.6V402.4z"  horiz-adv-x="1024" />

    
    <glyph glyph-name="css" unicode="&#58891;" d="M354.401 896c-87.04 0-157.44-70.559-157.44-157.599V462.72H78.72c-21.658 0-39.363-17.7-39.363-39.363V187.04c0-21.658 17.7-39.358 39.363-39.358h118.241V29.6c0-87.04 70.4-157.599 157.44-157.599H827.04c87.04 0 157.598 70.559 157.598 157.599V580.966c0 41.749-38.988 81.93-107.52 149.28L848 759.367l-29.123 29.112C751.54 857.011 711.393 896 669.6 896H354.406z m0-78.72h287.202c28.354-7.091 27.996-42.138 27.996-76.8v-120.161c0-21.658 17.7-39.358 39.362-39.358H827.04c39.388 0 78.878 0.026 78.878-39.362v-512c0-43.32-35.553-78.879-78.878-78.879H354.406c-43.325 0-78.72 35.558-78.72 78.879V147.68h393.918c21.663 0 39.362 17.695 39.362 39.358V423.357c0 21.663-17.7 39.363-39.362 39.363H275.68V738.401c0 43.32 35.395 78.879 78.72 78.879zM246.56 390.559c17.92 0 33.28-3.2 46.08-9.6l-9.6-19.2c-12.16 6.4-24.32 9.6-36.48 9.6-16.64 0-30.398-6.4-41.278-19.2-10.24-12.16-15.36-29.44-15.36-51.84 0-23.04 4.798-40.638 14.398-52.798 9.6-11.52 23.68-17.28 42.24-17.28 10.24 0 23.362 2.238 39.362 6.718v-19.2c-11.52-4.48-25.922-6.718-43.202-6.718-23.68 0-42.24 7.358-55.68 22.078-13.44 15.36-20.158 38.082-20.158 68.162 0 28.16 7.04 49.92 21.12 65.28 14.72 16 34.238 23.998 58.558 23.998z m120.002 0c17.28 0 32.64-3.2 46.08-9.6l-7.68-18.238c-13.44 5.76-26.24 8.638-38.4 8.638-10.24 0-17.92-2.238-23.04-6.718s-7.68-10.562-7.68-18.242c0-8.96 1.92-15.678 5.76-20.158 4.48-3.84 15.038-9.6 31.678-17.28 17.28-7.04 28.482-14.402 33.602-22.082 5.76-7.04 8.638-16 8.638-26.88 0-14.72-5.12-26.558-15.36-35.518s-24.96-13.44-44.16-13.44c-18.56 0-33.28 2.56-44.16 7.68v21.12c15.36-6.4 30.08-9.6 44.16-9.6 12.8 0 22.082 2.238 27.842 6.718 6.4 4.48 9.6 11.52 9.6 21.12 0 7.68-2.242 14.08-6.722 19.2-3.2 3.2-15.038 9.282-35.518 18.242-13.44 6.4-23.04 13.44-28.8 21.12s-8.642 17.598-8.642 29.758c0 13.44 4.48 24.002 13.44 31.682 9.6 8.32 22.722 12.478 39.362 12.478z m127.678 0c17.28 0 32.64-3.2 46.08-9.6l-7.68-18.238c-13.44 5.76-26.24 8.638-38.4 8.638-10.24 0-17.92-2.238-23.04-6.718s-7.68-10.562-7.68-18.242c0-8.96 1.92-15.678 5.76-20.158 4.48-3.84 15.042-9.6 31.682-17.28 17.28-7.04 28.478-14.402 33.598-22.082 5.76-7.04 8.642-16 8.642-26.88 0-14.72-5.12-26.558-15.36-35.518s-24.96-13.44-44.16-13.44c-18.56 0-33.28 2.56-44.16 7.68v21.12c15.36-6.4 30.08-9.6 44.16-9.6 12.8 0 22.078 2.238 27.838 6.718 6.4 4.48 9.6 11.52 9.6 21.12 0 7.68-2.238 14.08-6.718 19.2-3.2 3.2-15.042 9.282-35.522 18.242-13.44 6.4-23.04 13.44-28.8 21.12s-8.638 17.598-8.638 29.758c0 13.44 4.48 24.002 13.44 31.682 9.6 8.32 22.718 12.478 39.358 12.478z"  horiz-adv-x="1024" />

    
    <glyph glyph-name="docx" unicode="&#58892;" d="M354.401 896c-87.04 0-157.44-70.559-157.44-157.599V462.72H78.72c-21.658 0-39.363-17.7-39.363-39.363V187.04c0-21.658 17.7-39.358 39.363-39.358h118.241V29.6c0-87.04 70.4-157.599 157.44-157.599H827.04c87.04 0 157.598 70.559 157.598 157.599V580.966c0 41.749-38.988 81.93-107.52 149.28L848 759.367l-29.123 29.112C751.54 857.011 711.393 896 669.6 896H354.406z m0-78.72h287.202c28.354-7.091 27.996-42.138 27.996-76.8v-120.161c0-21.658 17.7-39.358 39.362-39.358H827.04c39.388 0 78.878 0.026 78.878-39.362v-512c0-43.32-35.553-78.879-78.878-78.879H354.406c-43.325 0-78.72 35.558-78.72 78.879V147.68h393.918c21.663 0 39.362 17.695 39.362 39.358V423.357c0 21.663-17.7 39.363-39.362 39.363H275.68V738.401c0 43.32 35.395 78.879 78.72 78.879z m-45.767-419.359c23.04 0 41.282-8.002 54.722-24.002 14.08-15.36 21.12-37.438 21.12-66.238 0-29.44-7.04-51.84-21.12-67.2-13.44-15.36-31.682-23.04-54.722-23.04-23.68 0-42.24 7.358-55.68 22.078-13.44 15.36-20.158 38.082-20.158 68.162 0 29.44 6.718 51.84 20.158 67.2s32 23.04 55.68 23.04z m186.24-0.962c17.92 0 33.28-3.2 46.08-9.6l-9.6-19.2c-12.16 6.4-24.32 9.6-36.48 9.6-16.64 0-30.398-6.4-41.278-19.2-10.24-12.16-15.36-29.44-15.36-51.84 0-23.04 4.798-40.638 14.398-52.798 9.6-11.52 23.68-17.28 42.24-17.28 10.24 0 23.362 2.238 39.362 6.718v-19.2c-11.52-4.48-25.922-6.718-43.202-6.718-23.68 0-42.24 7.358-55.68 22.078-13.44 15.36-20.158 38.082-20.158 68.162 0 28.16 7.04 49.92 21.12 65.28 14.72 16 34.238 23.998 58.558 23.998z m-421.438-1.92h48.958c24.96 0 44.482-7.68 58.562-23.04 14.72-14.72 22.078-35.84 22.078-63.36 0-28.8-7.68-50.878-23.04-66.238-14.72-15.36-35.518-23.04-62.398-23.04h-44.16V395.04z m478.08 0h23.998l39.362-67.2 40.32 67.2h23.04l-50.882-83.518 54.722-92.16h-24.96L613.914 295.2l-43.198-75.838h-23.04l54.718 92.16-50.878 83.518z m-242.882-17.28c-17.28 0-30.398-6.078-39.358-18.238-8.96-11.52-13.44-28.8-13.44-51.84 0-23.68 4.48-41.6 13.44-53.76 8.96-11.52 22.078-17.28 39.358-17.28s30.402 5.76 39.362 17.28c8.96 12.16 13.44 30.08 13.44 53.76 0 23.04-4.48 40.32-13.44 51.84-8.96 12.16-22.082 18.238-39.362 18.238z m-213.12-1.92V238.56h19.2c21.76 0 37.76 5.76 48 17.28 10.88 11.52 16.322 28.8 16.322 51.84s-5.12 39.998-15.36 50.878c-9.6 11.52-24.32 17.28-44.16 17.28H95.514z"  horiz-adv-x="1024" />

    
    <glyph glyph-name="rm" unicode="&#58893;" d="M354.401 896c-87.04 0-157.44-70.559-157.44-157.599V462.72H78.72c-21.658 0-39.363-17.7-39.363-39.363V187.04c0-21.658 17.7-39.358 39.363-39.358h118.241V29.6c0-87.04 70.4-157.599 157.44-157.599H827.04c87.04 0 157.598 70.559 157.598 157.599V580.966c0 41.749-38.988 81.93-107.52 149.28L848 759.367l-29.123 29.112C751.54 857.011 711.393 896 669.6 896H354.406z m0-78.72h287.202c28.354-7.091 27.996-42.138 27.996-76.8v-120.161c0-21.658 17.7-39.358 39.362-39.358H827.04c39.388 0 78.878 0.026 78.878-39.362v-512c0-43.32-35.553-78.879-78.878-78.879H354.406c-43.325 0-78.72 35.558-78.72 78.879V147.68h393.918c21.663 0 39.362 17.695 39.362 39.358V423.357c0 21.663-17.7 39.363-39.362 39.363H275.68V738.401c0 43.32 35.395 78.879 78.72 78.879zM216.474 388.639h42.24c21.12 0 36.802-4.158 47.042-12.478 10.24-8.32 15.36-20.802 15.36-37.442 0-23.04-11.52-38.718-34.56-47.038l48-78.72h-25.922l-42.24 72.96h-27.838v-72.96h-22.082V388.64z m144.962 0h32.64l49.92-143.038h0.958l48.962 143.038h33.598V212.96h-22.068V319.52c0 10.88 0.318 26.562 0.958 47.042h-0.958l-52.802-153.6h-19.2l-52.798 153.6h-0.962c1.28-22.4 1.92-38.722 1.92-48.962V212.96h-20.158V388.64z m-122.88-19.2v-65.28h20.158c13.44 0 23.362 2.882 29.762 8.642s9.6 14.08 9.6 24.96-3.2 18.878-9.6 23.998c-5.76 5.12-16 7.68-30.72 7.68h-19.2z"  horiz-adv-x="1024" />

    
    <glyph glyph-name="jpeg" unicode="&#58894;" d="M354.401 896c-87.04 0-157.44-70.559-157.44-157.599V462.72H78.72c-21.658 0-39.363-17.7-39.363-39.363V187.04c0-21.658 17.7-39.358 39.363-39.358h118.241V29.6c0-87.04 70.4-157.599 157.44-157.599H827.04c87.04 0 157.598 70.559 157.598 157.599V580.966c0 41.749-38.988 81.93-107.52 149.28L848 759.367l-29.123 29.112C751.54 857.011 711.393 896 669.6 896H354.406z m0-78.72h287.202c28.354-7.091 27.996-42.138 27.996-76.8v-120.161c0-21.658 17.7-39.358 39.362-39.358H827.04c39.388 0 78.878 0.026 78.878-39.362v-512c0-43.32-35.553-78.879-78.878-78.879H354.406c-43.325 0-78.72 35.558-78.72 78.879V147.68h393.918c21.663 0 39.362 17.695 39.362 39.358V423.357c0 21.663-17.7 39.363-39.362 39.363H275.68V738.401c0 43.32 35.395 78.879 78.72 78.879z m225.92-420.321c17.92 0 33.92-3.2 48-9.6L619.68 367.2c-14.08 7.04-27.838 10.558-41.278 10.558-18.56 0-33.28-6.078-44.16-18.238S517.92 329.76 517.92 306.72s4.802-40.638 14.402-52.798c10.24-11.52 25.6-17.28 46.08-17.28 9.6 0 19.84 1.28 30.72 3.84v51.84H573.6V312.48h57.6v-86.4c-17.92-5.76-37.438-8.638-58.558-8.638-23.68 0-42.562 7.68-56.642 23.04s-21.12 37.76-21.12 67.2c0 28.16 7.362 49.92 22.082 65.28 15.36 16 36.48 23.998 63.36 23.998z m-416.64-1.92h22.078v-172.8c0-16-4.158-28.16-12.478-36.48-8.32-8.96-20.162-13.44-35.522-13.44-7.04 0-13.118 0.962-18.238 2.882v19.2a97.68 97.68 0 0 1 19.2-1.92c8.32 0 14.398 2.238 18.238 6.718 4.48 4.48 6.722 11.202 6.722 20.162V395.04z m68.158 0h91.202v-20.158h-69.12v-53.76h64.318v-19.2H253.92v-62.402h69.12v-20.158h-91.207V395.04z m129.602 0h43.198c20.48 0 35.84-4.48 46.08-13.44 10.24-8.32 15.36-21.12 15.36-38.4s-5.438-31.038-16.318-41.278c-10.88-9.6-26.88-14.402-48-14.402H383.52v-68.158H361.44V395.04z m22.078-19.2v-69.12h15.36c16 0 27.202 2.882 33.602 8.642 7.04 5.76 10.558 14.72 10.558 26.88 0 10.88-3.518 19.2-10.558 24.96-6.4 5.76-16.322 8.638-29.762 8.638h-19.2z"  horiz-adv-x="1024" />

    
    <glyph glyph-name="doc" unicode="&#58895;" d="M354.401 896c-87.04 0-157.44-70.559-157.44-157.599V462.72H78.72c-21.658 0-39.363-17.7-39.363-39.363V187.04c0-21.658 17.7-39.358 39.363-39.358h118.241V29.6c0-87.04 70.4-157.599 157.44-157.599H827.04c87.04 0 157.598 70.559 157.598 157.599V580.966c0 41.749-38.988 81.93-107.52 149.28L848 759.367l-29.123 29.112C751.54 857.011 711.393 896 669.6 896H354.406z m0-78.72h287.202c28.354-7.091 27.996-42.138 27.996-76.8v-120.161c0-21.658 17.7-39.358 39.362-39.358H827.04c39.388 0 78.878 0.026 78.878-39.362v-512c0-43.32-35.553-78.879-78.878-78.879H354.406c-43.325 0-78.72 35.558-78.72 78.879V147.68h393.918c21.663 0 39.362 17.695 39.362 39.358V423.357c0 21.663-17.7 39.363-39.362 39.363H275.68V738.401c0 43.32 35.395 78.879 78.72 78.879z m15.678-419.359c23.04 0 41.282-8.002 54.722-24.002 14.08-15.36 21.12-37.438 21.12-66.238 0-29.44-7.04-51.84-21.12-67.2-13.44-15.36-31.682-23.04-54.722-23.04-23.68 0-42.24 7.358-55.68 22.078-13.44 15.36-20.158 38.082-20.158 68.162 0 29.44 6.718 51.84 20.158 67.2s32 23.04 55.68 23.04z m186.24-0.962c17.92 0 33.28-3.2 46.08-9.6l-9.6-19.2c-12.16 6.4-24.32 9.6-36.48 9.6-16.64 0-30.398-6.4-41.278-19.2-10.24-12.16-15.36-29.44-15.36-51.84 0-23.04 4.798-40.638 14.398-52.798 9.6-11.52 23.68-17.28 42.24-17.28 10.24 0 23.362 2.238 39.362 6.718v-19.2c-11.52-4.48-25.922-6.718-43.202-6.718-23.68 0-42.24 7.358-55.68 22.078-13.44 15.36-20.158 38.082-20.158 68.162 0 28.16 7.04 49.92 21.12 65.28 14.72 16 34.238 23.998 58.558 23.998z m-421.438-1.92h48.958c24.96 0 44.482-7.68 58.562-23.04 14.72-14.72 22.078-35.84 22.078-63.36 0-28.8-7.68-50.878-23.04-66.238-14.72-15.36-35.518-23.04-62.398-23.04h-44.16V395.04z m235.198-17.28c-17.28 0-30.398-6.078-39.358-18.238-8.96-11.52-13.44-28.8-13.44-51.84 0-23.68 4.48-41.6 13.44-53.76 8.96-11.52 22.078-17.28 39.358-17.28s30.402 5.76 39.362 17.28c8.96 12.16 13.44 30.08 13.44 53.76 0 23.04-4.48 40.32-13.44 51.84-8.96 12.16-22.082 18.238-39.362 18.238z m-213.12-1.92V238.56h19.2c21.76 0 37.76 5.76 48 17.28 10.88 11.52 16.322 28.8 16.322 51.84s-5.12 39.998-15.36 50.878c-9.6 11.52-24.32 17.28-44.16 17.28H156.96z"  horiz-adv-x="1024" />

    
    <glyph glyph-name="conf" unicode="&#58896;" d="M354.401 896c-87.04 0-157.44-70.559-157.44-157.599V462.72H78.72c-21.658 0-39.363-17.7-39.363-39.363V187.04c0-21.658 17.7-39.358 39.363-39.358h118.241V29.6c0-87.04 70.4-157.599 157.44-157.599H827.04c87.04 0 157.598 70.559 157.598 157.599V580.966c0 41.749-38.988 81.93-107.52 149.28L848 759.367l-29.123 29.112C751.54 857.011 711.393 896 669.6 896H354.406z m0-78.72h287.202c28.354-7.091 27.996-42.138 27.996-76.8v-120.161c0-21.658 17.7-39.358 39.362-39.358H827.04c39.388 0 78.878 0.026 78.878-39.362v-512c0-43.32-35.553-78.879-78.878-78.879H354.406c-43.325 0-78.72 35.558-78.72 78.879V147.68h393.918c21.663 0 39.362 17.695 39.362 39.358V423.357c0 21.663-17.7 39.363-39.362 39.363H275.68V738.401c0 43.32 35.395 78.879 78.72 78.879z m-60.8-425.759c23.04 0 41.278-8.002 54.718-24.002 14.08-15.36 21.12-37.438 21.12-66.238 0-29.44-7.04-51.84-21.12-67.2-13.44-15.36-31.678-23.04-54.718-23.04-23.68 0-42.24 7.358-55.68 22.078-13.44 15.36-20.162 38.082-20.162 68.162 0 29.44 6.722 51.84 20.162 67.2s32 23.04 55.68 23.04z m-139.202-0.962c17.92 0 33.28-3.2 46.08-9.6l-9.6-19.2c-12.16 6.4-24.32 9.6-36.48 9.6-16.64 0-30.398-6.4-41.278-19.2-10.24-12.16-15.36-29.44-15.36-51.84 0-23.04 4.798-40.638 14.398-52.798 9.6-11.52 23.68-17.28 42.24-17.28 10.24 0 23.362 2.238 39.362 6.718v-19.2c-11.52-4.48-25.922-6.718-43.202-6.718-23.68 0-42.24 7.358-55.68 22.078-13.44 15.36-20.158 38.082-20.158 68.162 0 28.16 7.04 49.92 21.12 65.28 14.72 16 34.238 23.998 58.558 23.998z m254.402-1.92h25.918L520.16 243.68h0.958c-1.28 21.12-1.92 37.438-1.92 48.958v96h21.12V212.96H514.4l-86.4 144.958h-0.962c1.28-23.04 1.92-39.68 1.92-49.92v-95.038H408.8V388.64z m179.518 0h91.202v-20.158h-69.12v-61.44h64.318v-20.162h-64.313v-73.918h-22.082V388.64zM293.6 371.359c-17.28 0-30.402-6.078-39.362-18.238-8.96-11.52-13.44-28.8-13.44-51.84 0-23.68 4.48-41.6 13.44-53.76 8.96-11.52 22.082-17.28 39.362-17.28s30.398 5.76 39.358 17.28c8.96 12.16 13.44 30.08 13.44 53.76 0 23.04-4.48 40.32-13.44 51.84-8.96 12.16-22.078 18.238-39.358 18.238z"  horiz-adv-x="1024" />

    
    <glyph glyph-name="ttf" unicode="&#58897;" d="M354.401 896c-87.04 0-157.44-70.559-157.44-157.599V462.72H78.72c-21.658 0-39.363-17.7-39.363-39.363V187.04c0-21.658 17.7-39.358 39.363-39.358h118.241V29.6c0-87.04 70.4-157.599 157.44-157.599H827.04c87.04 0 157.598 70.559 157.598 157.599V580.966c0 41.749-38.988 81.93-107.52 149.28L848 759.367l-29.123 29.112C751.54 857.011 711.393 896 669.6 896H354.406z m0-78.72h287.202c28.354-7.091 27.996-42.138 27.996-76.8v-120.161c0-21.658 17.7-39.358 39.362-39.358H827.04c39.388 0 78.878 0.026 78.878-39.362v-512c0-43.32-35.553-78.879-78.878-78.879H354.406c-43.325 0-78.72 35.558-78.72 78.879V147.68h393.918c21.663 0 39.362 17.695 39.362 39.358V423.357c0 21.663-17.7 39.363-39.362 39.363H275.68V738.401c0 43.32 35.395 78.879 78.72 78.879zM164.64 388.639h121.927v-20.158h-49.92v-155.52h-22.082v155.52h-49.92V388.64z m130.56 0h121.927v-20.158h-49.92v-155.52h-22.082v155.52h-49.92V388.64z m148.802 0H535.2v-20.158h-69.12v-61.44H530.4v-20.162h-64.327v-73.918h-22.068V388.64z"  horiz-adv-x="1024" />

    
    <glyph glyph-name="htm" unicode="&#58898;" d="M354.401 896c-87.04 0-157.44-70.559-157.44-157.599V462.72H78.72c-21.658 0-39.363-17.7-39.363-39.363V187.04c0-21.658 17.7-39.358 39.363-39.358h118.241V29.6c0-87.04 70.4-157.599 157.44-157.599H827.04c87.04 0 157.598 70.559 157.598 157.599V580.966c0 41.749-38.988 81.93-107.52 149.28L848 759.367l-29.123 29.112C751.54 857.011 711.393 896 669.6 896H354.406z m0-78.72h287.202c28.354-7.091 27.996-42.138 27.996-76.8v-120.161c0-21.658 17.7-39.358 39.362-39.358H827.04c39.388 0 78.878 0.026 78.878-39.362v-512c0-43.32-35.553-78.879-78.878-78.879H354.406c-43.325 0-78.72 35.558-78.72 78.879V147.68h393.918c21.663 0 39.362 17.695 39.362 39.358V423.357c0 21.663-17.7 39.363-39.362 39.363H275.68V738.401c0 43.32 35.395 78.879 78.72 78.879zM146.72 392.161H168.8v-73.922h79.673V392.16h23.04V216.48h-23.04v81.607h-79.668v-81.602h-22.082V392.16z m151.68 0H420.32V372h-49.92v-155.52h-22.087v155.52h-49.92V392.16z m148.802 0h32.64l49.92-143.042h0.958L579.68 392.16h33.598V216.48H591.2V323.04c0 10.88 0.318 26.558 0.958 47.038h-0.958l-52.802-153.6h-19.2l-52.798 153.6h-0.962c1.28-22.4 1.92-38.718 1.92-48.958V216.48H447.2V392.16z"  horiz-adv-x="1024" />

    
    <glyph glyph-name="text" unicode="&#58900;" d="M354.401 896c-87.04 0-157.44-70.559-157.44-157.599V462.72H78.72c-21.658 0-39.363-17.7-39.363-39.363V187.04c0-21.658 17.7-39.358 39.363-39.358h118.241V29.6c0-87.04 70.4-157.599 157.44-157.599H827.04c87.04 0 157.598 70.559 157.598 157.599V580.966c0 41.749-38.988 81.93-107.52 149.28L848 759.367l-29.123 29.112C751.54 857.011 711.393 896 669.6 896H354.406z m0-78.72h287.202c28.354-7.091 27.996-42.138 27.996-76.8v-120.161c0-21.658 17.7-39.358 39.362-39.358H827.04c39.388 0 78.878 0.026 78.878-39.362v-512c0-43.32-35.553-78.879-78.878-78.879H354.406c-43.325 0-78.72 35.558-78.72 78.879V147.68h393.918c21.663 0 39.362 17.695 39.362 39.358V423.357c0 21.663-17.7 39.363-39.362 39.363H275.68V738.401c0 43.32 35.395 78.879 78.72 78.879zM166.554 392.161h121.922V372h-49.92v-155.52h-22.082v155.52h-49.92V392.16z m128.64 0h24.002l39.358-67.2 40.32 67.2h23.04l-50.868-83.527 54.718-92.16h-24.96l-43.198 75.842-43.202-75.842h-23.04l54.722 92.16-50.882 83.522z m133.442 0h121.918V372h-49.92v-155.52h-22.068v155.52h-49.92V392.16z"  horiz-adv-x="1024" />

    
    <glyph glyph-name="ini" unicode="&#58901;" d="M354.401 896c-87.04 0-157.44-70.559-157.44-157.599V462.72H78.72c-21.658 0-39.363-17.7-39.363-39.363V187.04c0-21.658 17.7-39.358 39.363-39.358h118.241V29.6c0-87.04 70.4-157.599 157.44-157.599H827.04c87.04 0 157.598 70.559 157.598 157.599V580.966c0 41.749-38.988 81.93-107.52 149.28L848 759.367l-29.123 29.112C751.54 857.011 711.393 896 669.6 896H354.406z m0-78.72h287.202c28.354-7.091 27.996-42.138 27.996-76.8v-120.161c0-21.658 17.7-39.358 39.362-39.358H827.04c39.388 0 78.878 0.026 78.878-39.362v-512c0-43.32-35.553-78.879-78.878-78.879H354.406c-43.325 0-78.72 35.558-78.72 78.879V147.68h393.918c21.663 0 39.362 17.695 39.362 39.358V423.357c0 21.663-17.7 39.363-39.362 39.363H275.68V738.401c0 43.32 35.395 78.879 78.72 78.879z m-152.32-428.641h64.313v-12.478l-21.12-4.802V230.24l21.12-4.802v-12.478h-64.308V225.44l21.12 4.802V371.354l-21.12 4.802v12.478z m97.92 0h25.918L411.36 243.68h0.958c-1.28 21.12-1.92 37.438-1.92 48.958v96h21.12V212.96h-25.913l-86.4 144.958h-0.962c1.28-23.04 1.92-39.68 1.92-49.92v-95.038h-20.158V388.64z m165.12 0h64.318v-12.478l-21.12-4.802V230.24l21.12-4.802v-12.478H465.12V225.44l21.12 4.802V371.354l-21.12 4.802v12.478z"  horiz-adv-x="1024" />

    
    <glyph glyph-name="tar" unicode="&#58902;" d="M354.401 896c-87.04 0-157.44-70.559-157.44-157.599V462.72H78.72c-21.658 0-39.363-17.7-39.363-39.363V187.04c0-21.658 17.7-39.358 39.363-39.358h118.241V29.6c0-87.04 70.4-157.599 157.44-157.599H827.04c87.04 0 157.598 70.559 157.598 157.599V580.966c0 41.749-38.988 81.93-107.52 149.28L848 759.367l-29.123 29.112C751.54 857.011 711.393 896 669.6 896H354.406z m0-78.72h287.202c28.354-7.091 27.996-42.138 27.996-76.8v-120.161c0-21.658 17.7-39.358 39.362-39.358H827.04c39.388 0 78.878 0.026 78.878-39.362v-512c0-43.32-35.553-78.879-78.878-78.879H354.406c-43.325 0-78.72 35.558-78.72 78.879V147.68h393.918c21.663 0 39.362 17.695 39.362 39.358V423.357c0 21.663-17.7 39.363-39.362 39.363H275.68V738.401c0 43.32 35.395 78.879 78.72 78.879z m-15.047-427.679h20.162l65.28-176.64h-23.04l-19.2 54.718h-65.28l-19.2-54.718h-23.04l64.318 176.64z m-174.72-0.962h121.932v-20.158h-49.92v-155.52h-22.082v155.52h-49.92V388.64z m284.16 0h42.24c21.12 0 36.802-4.158 47.042-12.478 10.24-8.32 15.36-20.802 15.36-37.442 0-23.04-11.52-38.718-34.56-47.038l48-78.72h-25.922l-42.24 72.96h-27.828v-72.96h-22.082V388.64z m22.082-19.2v-65.28h20.158c13.44 0 23.362 2.882 29.762 8.642s9.6 14.08 9.6 24.96-3.2 18.878-9.6 23.998c-5.76 5.12-16 7.68-30.72 7.68h-19.2z m-120.96-3.84c-1.92-8.96-4.802-18.238-8.642-27.838l-17.28-50.882h51.84l-18.238 50.882c-3.84 10.88-6.4 20.158-7.68 27.838z"  horiz-adv-x="1024" />

    
    <glyph glyph-name="ico" unicode="&#58903;" d="M354.401 896c-87.04 0-157.44-70.559-157.44-157.599V462.72H78.72c-21.658 0-39.363-17.7-39.363-39.363V187.04c0-21.658 17.7-39.358 39.363-39.358h118.241V29.6c0-87.04 70.4-157.599 157.44-157.599H827.04c87.04 0 157.598 70.559 157.598 157.599V580.966c0 41.749-38.988 81.93-107.52 149.28L848 759.367l-29.123 29.112C751.54 857.011 711.393 896 669.6 896H354.406z m0-78.72h287.202c28.354-7.091 27.996-42.138 27.996-76.8v-120.161c0-21.658 17.7-39.358 39.362-39.358H827.04c39.388 0 78.878 0.026 78.878-39.362v-512c0-43.32-35.553-78.879-78.878-78.879H354.406c-43.325 0-78.72 35.558-78.72 78.879V147.68h393.918c21.663 0 39.362 17.695 39.362 39.358V423.357c0 21.663-17.7 39.363-39.362 39.363H275.68V738.401c0 43.32 35.395 78.879 78.72 78.879z m132.48-419.681c23.04 0 41.278-7.998 54.718-23.998 14.08-15.36 21.12-37.442 21.12-66.242 0-29.44-7.04-51.84-21.12-67.2-13.44-15.36-31.678-23.04-54.718-23.04-23.68 0-42.24 7.362-55.68 22.082-13.44 15.36-20.162 38.078-20.162 68.158 0 29.44 6.722 51.84 20.162 67.2s32 23.04 55.68 23.04z m-139.202-0.958c17.92 0 33.28-3.2 46.08-9.6l-9.6-19.2c-12.16 6.4-24.32 9.6-36.48 9.6-16.64 0-30.398-6.4-41.278-19.2-10.24-12.16-15.36-29.44-15.36-51.84 0-23.04 4.798-40.642 14.398-52.802 9.6-11.52 23.68-17.28 42.24-17.28 10.24 0 23.362 2.242 39.362 6.722v-19.2c-11.52-4.48-25.922-6.722-43.202-6.722-23.68 0-42.24 7.362-55.68 22.082C274.719 254.561 268 277.28 268 307.36c0 28.16 7.04 49.92 21.12 65.28 14.72 16 34.238 24.002 58.558 24.002z m-166.078-1.92h64.313v-12.482l-21.12-4.798V236.32l21.12-4.798v-12.482h-64.308V231.52l21.12 4.798V377.446l-21.12 4.798v12.482z m305.28-17.28c-17.28 0-30.402-6.082-39.362-18.242-8.96-11.52-13.44-28.8-13.44-51.84 0-23.68 4.48-41.6 13.44-53.76 8.96-11.52 22.082-17.28 39.362-17.28s30.398 5.76 39.358 17.28c8.96 12.16 13.44 30.08 13.44 53.76 0 23.04-4.48 40.32-13.44 51.84-8.96 12.16-22.078 18.242-39.358 18.242z"  horiz-adv-x="1024" />

    
    <glyph glyph-name="pdf" unicode="&#58904;" d="M354.401 896c-87.04 0-157.44-70.559-157.44-157.599V462.72H78.72c-21.658 0-39.363-17.7-39.363-39.363V187.04c0-21.658 17.7-39.358 39.363-39.358h118.241V29.6c0-87.04 70.4-157.599 157.44-157.599H827.04c87.04 0 157.598 70.559 157.598 157.599V580.966c0 41.749-38.988 81.93-107.52 149.28L848 759.367l-29.123 29.112C751.54 857.011 711.393 896 669.6 896H354.406z m0-78.72h287.202c28.354-7.091 27.996-42.138 27.996-76.8v-120.161c0-21.658 17.7-39.358 39.362-39.358H827.04c39.388 0 78.878 0.026 78.878-39.362v-512c0-43.32-35.553-78.879-78.878-78.879H354.406c-43.325 0-78.72 35.558-78.72 78.879V147.68h393.918c21.663 0 39.362 17.695 39.362 39.358V423.357c0 21.663-17.7 39.363-39.362 39.363H275.68V738.401c0 43.32 35.395 78.879 78.72 78.879z m-188.8-422.241H208.8c20.48 0 35.84-4.48 46.08-13.44 10.24-8.32 15.36-21.12 15.36-38.4S264.8 312.16 253.92 301.92c-10.88-9.6-26.88-14.402-48-14.402H187.68v-68.158H165.6V395.04z m142.08 0h48.958c24.96 0 44.482-7.68 58.562-23.04 14.72-14.72 22.078-35.84 22.078-63.36 0-28.8-7.68-50.878-23.04-66.238-14.72-15.36-35.518-23.04-62.398-23.04h-44.16V395.04z m167.998 0h91.202v-20.158h-69.12v-61.44h64.318v-20.162h-64.313v-73.918h-22.082V395.04z m-288-19.2v-69.12h15.36c16 0 27.202 2.882 33.602 8.642 7.04 5.76 10.558 14.72 10.558 26.88 0 10.88-3.518 19.2-10.558 24.96-6.4 5.76-16.322 8.638-29.762 8.638h-19.2z m142.08 0V238.56h19.2c21.76 0 37.76 5.76 48 17.28 10.88 11.52 16.322 28.8 16.322 51.84s-5.12 39.998-15.36 50.878c-9.6 11.52-24.32 17.28-44.16 17.28H329.76z"  horiz-adv-x="1024" />

    
    <glyph glyph-name="sh" unicode="&#58905;" d="M354.401 896c-87.04 0-157.44-70.559-157.44-157.599V462.72H78.72c-21.658 0-39.363-17.7-39.363-39.363V187.04c0-21.658 17.7-39.358 39.363-39.358h118.241V29.6c0-87.04 70.4-157.599 157.44-157.599H827.04c87.04 0 157.598 70.559 157.598 157.599V580.966c0 41.749-38.988 81.93-107.52 149.28L848 759.367l-29.123 29.112C751.54 857.011 711.393 896 669.6 896H354.406z m0-78.72h287.202c28.354-7.091 27.996-42.138 27.996-76.8v-120.161c0-21.658 17.7-39.358 39.362-39.358H827.04c39.388 0 78.878 0.026 78.878-39.362v-512c0-43.32-35.553-78.879-78.878-78.879H354.406c-43.325 0-78.72 35.558-78.72 78.879V147.68h393.918c21.663 0 39.362 17.695 39.362 39.358V423.357c0 21.663-17.7 39.363-39.362 39.363H275.68V738.401c0 43.32 35.395 78.879 78.72 78.879z m-94.72-426.721c17.28 0 32.64-3.2 46.08-9.6l-7.68-18.238c-13.44 5.76-26.24 8.638-38.4 8.638-10.24 0-17.92-2.238-23.04-6.718s-7.68-10.562-7.68-18.242c0-8.96 1.92-15.678 5.76-20.158 4.48-3.84 15.038-9.6 31.678-17.28 17.28-7.04 28.482-14.402 33.602-22.082 5.76-7.04 8.638-16 8.638-26.88 0-14.72-5.12-26.558-15.36-35.518s-24.96-13.44-44.16-13.44c-18.56 0-33.28 2.56-44.16 7.68v21.12c15.36-6.4 30.08-9.6 44.16-9.6 12.8 0 22.082 2.238 27.842 6.718 6.4 4.48 9.6 11.52 9.6 21.12 0 7.68-2.242 14.08-6.722 19.2-3.2 3.2-15.038 9.282-35.518 18.242-13.44 6.4-23.04 13.44-28.8 21.12s-8.642 17.598-8.642 29.758c0 13.44 4.48 24.002 13.44 31.682 9.6 8.32 22.722 12.478 39.362 12.478z m84.48-1.92h22.078v-73.918h79.682V388.64h23.04V212.96h-23.04v81.593h-79.687v-81.598h-22.068V388.64z"  horiz-adv-x="1024" />

    
    <glyph glyph-name="xml" unicode="&#58906;" d="M354.401 896c-87.04 0-157.44-70.559-157.44-157.599V462.72H78.72c-21.658 0-39.363-17.7-39.363-39.363V187.04c0-21.658 17.7-39.358 39.363-39.358h118.241V29.6c0-87.04 70.4-157.599 157.44-157.599H827.04c87.04 0 157.598 70.559 157.598 157.599V580.966c0 41.749-38.988 81.93-107.52 149.28L848 759.367l-29.123 29.112C751.54 857.011 711.393 896 669.6 896H354.406z m0-78.72h287.202c28.354-7.091 27.996-42.138 27.996-76.8v-120.161c0-21.658 17.7-39.358 39.362-39.358H827.04c39.388 0 78.878 0.026 78.878-39.362v-512c0-43.32-35.553-78.879-78.878-78.879H354.406c-43.325 0-78.72 35.558-78.72 78.879V147.68h393.918c21.663 0 39.362 17.695 39.362 39.358V423.357c0 21.663-17.7 39.363-39.362 39.363H275.68V738.401c0 43.32 35.395 78.879 78.72 78.879z m-209.28-428.641h23.998l39.362-67.2 40.32 67.2h23.04L220.96 305.12l54.722-92.16h-24.96L207.52 288.8 164.32 212.96h-23.04L196 305.121 145.12 388.64z m154.558 0h32.64l49.92-143.038h0.962L432.16 388.64h33.602V212.96H443.68V319.52c0 10.88 0.322 26.562 0.962 47.042h-0.962l-52.798-153.6h-19.2l-52.802 153.6h-0.958c1.28-22.4 1.92-38.722 1.92-48.962V212.96h-20.167V388.64z m214.082 0h22.078v-155.52h69.12v-20.158H513.76V388.64z"  horiz-adv-x="1024" />

    
    <glyph glyph-name="jar" unicode="&#58907;" d="M354.401 896c-87.04 0-157.44-70.559-157.44-157.599V462.72H78.72c-21.658 0-39.363-17.7-39.363-39.363V187.04c0-21.658 17.7-39.358 39.363-39.358h118.241V29.6c0-87.04 70.4-157.599 157.44-157.599H827.04c87.04 0 157.598 70.559 157.598 157.599V580.966c0 41.749-38.988 81.93-107.52 149.28L848 759.367l-29.123 29.112C751.54 857.011 711.393 896 669.6 896H354.406z m0-78.72h287.202c28.354-7.091 27.996-42.138 27.996-76.8v-120.161c0-21.658 17.7-39.358 39.362-39.358H827.04c39.388 0 78.878 0.026 78.878-39.362v-512c0-43.32-35.553-78.879-78.878-78.879H354.406c-43.325 0-78.72 35.558-78.72 78.879V147.68h393.918c21.663 0 39.362 17.695 39.362 39.358V423.357c0 21.663-17.7 39.363-39.362 39.363H275.68V738.401c0 43.32 35.395 78.879 78.72 78.879z m-41.6-407.199h20.158l65.28-176.64h-23.04l-19.2 54.718h-65.28l-19.2-54.718h-23.04l64.322 176.64z m-108.482-0.962H226.4v-172.8c0-16-4.162-28.16-12.482-36.48-8.32-8.96-20.158-13.44-35.518-13.44-7.04 0-13.122 0.962-18.242 2.882v19.2a97.68 97.68 0 0 1 19.2-1.92c8.32 0 14.402 2.238 18.242 6.718 4.48 4.48 6.718 11.202 6.718 20.162V409.12z m217.922 0h42.24c21.12 0 36.798-4.158 47.038-12.478 10.24-8.32 15.36-20.802 15.36-37.442 0-23.04-11.52-38.718-34.56-47.038l48-78.72H514.4l-42.24 72.96h-27.847v-72.96h-22.068V409.12z m22.078-19.2v-65.28h20.162c13.44 0 23.358 2.882 29.758 8.642s9.6 14.08 9.6 24.96-3.2 18.878-9.6 23.998c-5.76 5.12-16 7.68-30.72 7.68h-19.2z m-120.96-3.84c-1.92-8.96-4.798-18.238-8.638-27.838l-17.28-50.882h51.84L331.04 358.24c-3.84 10.88-6.4 20.158-7.68 27.838z"  horiz-adv-x="1024" />

    
    <glyph glyph-name="folder" unicode="&#58899;" d="M43.886 676.571C21.943 676.571 0 691.2 0 713.143s21.943 36.571 43.886 36.571h358.4c14.628 0 36.571-14.628 36.571-36.571s-21.943-36.572-43.886-36.572H43.886z m504.685 0C526.63 676.571 512 691.2 512 713.143s14.629 36.571 36.571 36.571 36.572-14.628 36.572-36.571-14.629-36.572-36.572-36.572zM0 442.514v14.629C0 537.6 65.829 603.429 146.286 603.429h475.428c21.943 0 36.572 14.628 36.572 36.571v36.571c0 43.886 29.257 73.143 73.143 73.143h160.914C972.8 742.4 1031.314 669.257 1024 588.8l-58.514-512c-7.315-73.143-73.143-131.657-146.286-131.657H204.8c-73.143 0-138.971 58.514-146.286 131.657L0 442.514z m131.657-358.4c7.314-36.571 36.572-65.828 73.143-65.828h614.4c36.571 0 65.829 29.257 73.143 65.828l58.514 512c0 43.886-29.257 73.143-65.828 80.457h-153.6V640c0-58.514-51.2-109.714-109.715-109.714H146.286c-43.886 0-73.143-29.257-73.143-73.143v-7.314l58.514-365.715z"  horiz-adv-x="1024" />

    


  </font>
</defs>
</svg>
